<svg width="558" height="320" fill="none" xmlns="http://www.w3.org/2000/svg"><g filter="url(#filter0_d_6_373)"><rect x="18.83" y="14" width="521.17" height="284" rx="8" fill="#fff"/></g><g opacity=".5"><path opacity=".1" d="M223.674 273.185c16.197 0 29.327-2.104 29.327-4.701 0-2.597-13.13-4.702-29.327-4.702-16.197 0-29.328 2.105-29.328 4.702s13.131 4.701 29.328 4.701zm159.419.132c20.211 0 36.596-2.104 36.596-4.701 0-2.597-16.385-4.701-36.596-4.701-20.212 0-36.596 2.104-36.596 4.701 0 2.597 16.384 4.701 36.596 4.701zM117.266 139.772h30.546v41.556h-28.31c-.075.427-.148.856-.226 1.286h28.536v33.514c-.051-.015-.096-.033-.144-.051a54.981 54.981 0 01-2.408-1.016l-.512-.231a59.973 59.973 0 01-2.408-1.202 50.09 50.09 0 01-12.84-9.817c-.102-.099-.198-.204-.301-.3a51.706 51.706 0 01-1.429-1.611l-.512-.6a52.855 52.855 0 01-1.592-2.055c-.075-.102-.147-.205-.226-.301a44.715 44.715 0 01-5.177-9.343c-.042-.099-.078-.207-.117-.3a40.728 40.728 0 01-1.099-3.214c-.138-.454-.27-.902-.385-1.373a7.838 7.838 0 01-.111-.409c-1.71-6.66-1.911-13.579-1.911-20.449v-2.403c0-2.779.033-5.576.081-8.37 0-.724.03-1.445.045-2.172.042-1.844.102-3.689.181-5.533.018-.514.042-1.025.069-1.536 0-.294.015-.588.045-.883.072-1.069.132-2.13.205-3.187zm30.546-46.27h-16.755a126.724 126.724 0 018.911-12.245 155.807 155.807 0 017.844-8.892v21.137zm0 1.286v43.698h-30.45c0-.126.021-.255.03-.381a110.96 110.96 0 01.193-2.236c.039-.393.081-.874.126-1.309.045-.436.087-.878.139-1.313.051-.436.096-.871.15-1.304.054-.433.102-.871.16-1.304.045-.36.093-.718.141-1.078.069-.508.142-1.019.22-1.523 0-.075.021-.154.033-.226a103.784 103.784 0 012.242-10.971 81.122 81.122 0 013.777-11.115 83.463 83.463 0 015.683-10.923l17.556-.015zm7.293 44.981v41.559h65.243v-41.559h-65.243zm0 42.842V218.3c.373.078.743.153 1.11.216.5.096.997.184 1.505.259.096.015.196.03.301.039.199.033.403.06.602.087.503.069 1.002.126 1.505.171.238.024.479.045.719.063l.581.045c.316.024.629.042.939.051.193 0 .386.018.584.024h2.146c.259 0 .518 0 .774-.024h.018c.177 0 .358 0 .538-.024.051.003.101.003.151 0 .15 0 .301 0 .445-.021h.106l1.008-.078c.331-.03.665-.069 1.002-.105l.687-.081a60.173 60.173 0 008.261-1.755c6.086-1.694 12.04-4.064 18.122-5.801 7.865-2.238 16.554-3.337 24.154-.6v-28.155h-65.258zm65.243-89.109V38.175a84.024 84.024 0 00-21.198 2.482c-16.521 4.142-31.344 13.128-44.045 24.603V93.5h3.274v1.282h-3.274v43.704h65.243v-43.7h-48.524v-1.284h48.524zm83.801-18.688c-4.087-.145-8.15-1.436-11.825-3.431-7.028-3.815-12.641-9.706-18.914-14.678-13.032-10.356-29.195-16.604-45.776-18.154v54.951h93.138l.232-.243-16.855-18.445zm8.485-1.502l8.996 9.853V70.728c-3.013.373-5.652 1.259-8.984 2.572l-.012.011zm8.996 153.85v-44.551h-19.169c-.051-.189-.103-.382-.163-.574.057.192.105.385.16.574h-74.812v32.219a63.465 63.465 0 012.107 1.64c.75.601 1.49 1.235 2.234 1.857l.749.619c.358.3.719.601 1.084.883.722.585 1.451 1.162 2.188 1.73.364.301.737.571 1.107.854a150.81 150.81 0 0018.55 12.109 182.18 182.18 0 004.391 2.347c.984.501 1.974 1 2.967 1.484 1.493.727 2.998 1.428 4.515 2.102a166.018 166.018 0 0043.943 12.777c3.369.497 6.751.887 10.146 1.172v-27.245h.301l-.298.003zM227.646 94.785v43.701h93.996v-43.7h-93.996zm0 44.984v41.559h93.996v-41.559h-93.996zm101.292-69.095v13.873l11.482-12.575a126.057 126.057 0 00-11.482-1.313v.015zm0 69.11v41.544h91.422v-41.559l-91.422.015zm91.088 90.677l.322-47.85h-91.41v72.27c5.888.247 11.786.177 17.667-.21h.103c2.809-.176 5.605-.433 8.388-.769h.063a154.703 154.703 0 0043.1-11.479l21.767-11.962zm17.962-83.849a111.274 111.274 0 00-3.205-6.825h-7.133v41.541h18.034c-.009-11.764-2.991-23.781-7.687-34.731l-.009.015zm-10.338 36.014v41.157c5.08-4.861 9.372-10.422 12.463-16.779 3.717-7.654 5.418-15.942 5.556-24.384l-18.019.006zm0-54.952v10.815h6.465a117.21 117.21 0 00-6.456-10.83l-.009.015zm-62.002-48.847c-.475-.18-.951-.363-1.43-.54a130.645 130.645 0 00-15.443-4.633l-17.571 19.248-.337.357.226.246h62.537a133.864 133.864 0 00-27.973-14.693l-.009.015zM395.463 94.8H330.22l-1.282 1.172v42.514h91.434v-20.593a130.18 130.18 0 00-24.9-23.108l-.009.015z" fill="#587EEC"/><path opacity=".1" d="M147.812 116.829v21.657h-30.45c0-.126.021-.255.03-.381a110.96 110.96 0 01.193-2.235c.039-.394.081-.875.126-1.31.045-.436.087-.877.139-1.313.051-.436.096-.871.15-1.304.054-.432.102-.871.16-1.304.045-.36.093-.718.141-1.078.069-.508.142-1.019.22-1.523 0-.075.021-.153.033-.226a103.835 103.835 0 012.242-10.971l27.016-.012zm-30.546 22.943h30.546v41.556h-28.31c-.075.427-.148.856-.226 1.286h28.536v33.514c-.051-.015-.096-.033-.144-.051a54.981 54.981 0 01-2.408-1.016l-.512-.231a59.973 59.973 0 01-2.408-1.202 50.09 50.09 0 01-12.84-9.817c-.102-.099-.198-.204-.301-.3a51.706 51.706 0 01-1.429-1.611l-.512-.6a52.855 52.855 0 01-1.592-2.055c-.075-.102-.147-.205-.226-.301a44.715 44.715 0 01-5.177-9.343c-.042-.099-.078-.207-.117-.3a40.728 40.728 0 01-1.099-3.214c-.138-.454-.27-.902-.385-1.373a7.838 7.838 0 01-.111-.409c-1.71-6.66-1.911-13.579-1.911-20.449v-2.403c0-2.779.033-5.576.081-8.37 0-.724.03-1.445.045-2.172.042-1.844.102-3.689.181-5.533.018-.514.042-1.025.069-1.536 0-.294.015-.588.045-.883.072-1.069.132-2.13.205-3.187zm60.806-38.729v37.443h-22.967v-37.443h3.274V88.365h13.442v12.678h6.251zm0 38.726h-22.964v41.556h22.964v-41.556zm-22.967 42.845h22.967v34.547a59.999 59.999 0 01-8.262 1.752l-.686.084c-.337.039-.671.072-1.002.105a27.94 27.94 0 01-1.008.078h-.106c-.144 0-.301.018-.442.021h-.154c-.18 0-.361.018-.541.024-.256.015-.512.018-.774.021h-2.131l-.581-.021c-.301 0-.626-.033-.939-.054l-.578-.042-.719-.066a30.764 30.764 0 01-1.505-.171l-.602-.084-.301-.042a48.36 48.36 0 01-1.505-.259c-.37-.063-.737-.141-1.11-.216l-.021-35.677zM321.642 96.62h-18.938v41.863h18.938V96.621zm.003 43.149v41.559h-93.999v-17.926h50.068v10.575h24.99v-34.208h18.941zm.298 87.402h-.301v27.263a167.96 167.96 0 01-10.143-1.169 166.053 166.053 0 01-43.961-12.804 158.114 158.114 0 01-11.87-5.942 151.538 151.538 0 01-18.553-12.109 163.309 163.309 0 01-4.373-3.467c-.996-.82-1.986-1.661-2.989-2.479a67.853 67.853 0 00-2.107-1.643v-32.207h74.809c-.052-.192-.103-.385-.157-.574.057.189.112.382.163.574h19.181v44.539c.102.003.202.012.301.018zm49.09-133.669h-12.341v-3.827h5.532v-11.4c.48.173.958.353 1.433.537v10.863h5.376v3.827zm29.73 44.984h-60.581l.021.015-.027-.015h-11.238V96.624h3.184v30.942h14.552v-18.325h12.021V94.788h12.341v14.465h12.021v18.325h17.706v10.908zm-71.825 1.283v41.559h71.825v-41.559h-71.825zm91.323 90.478l.099-32.895h-19.597v-14.72h-71.825v72.249c5.888.247 11.786.177 17.667-.21h.103c2.809-.176 5.605-.433 8.388-.769h.063a154.703 154.703 0 0043.1-11.479m30.667-59.809h16.755c-.147 8.438-1.845 16.727-5.559 24.381-3.091 6.36-7.386 11.921-12.46 16.778v-26.436h1.264v-14.723zm16.764-1.286h-16.764v-34.731h9.071c4.695 10.95 7.678 22.967 7.693 34.731z" fill="#587EEC"/><path opacity=".1" d="M321.645 108.259h-10.146v13.125h10.146v-13.125zm0 27.205h-10.146v3.022h10.146v-3.022zm0 4.305h-10.146v8.817h10.146v-8.817zm0 22.9h-10.146v13.125h10.146v-13.125zm0 27.206h-10.146V203h10.146v-13.125zm-.003 37.278c.102 0 .202 0 .301.018h-.301v3.049h-10.143v-13.14h10.143v10.073zm0 17.127v10.138a167.155 167.155 0 01-10.143-1.168v-8.97h10.143zm-50.513-63.916h-43.483v.964h43.483v-.964zm0 2.247h-43.483v3.695h43.483v-3.695zm0 15.808h-43.483v5.942h43.483v-5.942zm-.003 18.055v5.942h-34.011a151.107 151.107 0 01-4.376-3.467c-.996-.82-1.983-1.661-2.989-2.475h41.376zm0 18.051v5.936h-3.591a160.008 160.008 0 01-11.867-5.945l15.458.009zm84.042-90.728h-8.56v8.544h8.56v-8.544zM169.832 103.99h-8.56v8.544h8.56v-8.544zm0 19.845h-8.56v8.544h8.56v-8.544zm0 19.845h-8.56v8.544h8.56v-8.544zm0 19.843h-8.56v8.543h8.56v-8.543zm0 19.845h-8.56v8.544h8.56v-8.544zm0 19.845h-8.56v8.544h8.56v-8.544zm218.013-59.416h-8.56v8.544h8.56v-8.544zm-32.677 21.074h-8.56v8.544h8.56v-8.544zm32.677 0h-8.56v8.544h8.56v-8.544zm-32.677 21.071h-8.56v8.544h8.56v-8.544zm32.677 0h-8.56v8.544h8.56v-8.544zm-32.677 21.074h-8.56v8.544h8.56v-8.544zm32.677 0h-8.56v8.544h8.56v-8.544zm-32.677 21.074h-8.56v8.544h8.56v-8.544zm32.677 0h-8.56v8.544h8.56v-8.544zm-41.237 26.581v-5.51h8.557v4.726l-8.557.784zm-228.09-126.864v4.887h29.294v-4.887h-29.294zm2.919 4.581h-2.39v-4.281h2.408l-.018 4.281zm2.917 0h-2.408v-4.281h2.408v4.281zm2.91 0h-2.408v-4.281h2.408v4.281zm2.917 0h-2.405v-4.281h2.408l-.003 4.281zm2.913 0h-2.408v-4.281h2.408v4.281zm2.917 0h-2.408v-4.281h2.408v4.281zm2.916 0h-2.408v-4.281h2.408v4.281zm2.914 0h-2.408v-4.281h2.408v4.281zm2.913 0h-2.408v-4.281h2.408v4.281zm2.914 0h-2.408v-4.281h2.408v4.281zm-29.15 9.64v4.888h29.294v-4.888h-29.294zm2.919 4.578h-2.39v-4.268h2.408l-.018 4.268zm2.917 0h-2.408v-4.268h2.408v4.268zm2.91 0h-2.408v-4.268h2.408v4.268zm2.917 0h-2.405v-4.268h2.408l-.003 4.268zm2.913 0h-2.408v-4.268h2.408v4.268zm2.917 0h-2.408v-4.268h2.408v4.268zm2.916 0h-2.408v-4.268h2.408v4.268zm2.914 0h-2.408v-4.268h2.408v4.268zm2.913 0h-2.408v-4.268h2.408v4.268zm2.914 0h-2.408v-4.268h2.408v4.268zm-29.15 9.649v4.897h29.294v-4.897h-29.294zm2.919 4.579h-2.39v-4.272h2.408l-.018 4.272zm2.917 0h-2.408v-4.272h2.408v4.272zm2.91 0h-2.408v-4.272h2.408v4.272zm2.917 0h-2.405v-4.272h2.408l-.003 4.272zm2.913 0h-2.408v-4.272h2.408v4.272zm2.917 0h-2.408v-4.272h2.408v4.272zm2.916 0h-2.408v-4.272h2.408v4.272zm2.914 0h-2.408v-4.272h2.408v4.272zm2.913 0h-2.408v-4.272h2.408v4.272zm2.914 0h-2.408v-4.272h2.408v4.272zm-29.15 9.649v4.882h29.294v-4.882h-29.294zm2.919 4.578h-2.39v-4.275h2.408l-.018 4.275zm2.917 0h-2.408v-4.275h2.408v4.275zm2.91 0h-2.408v-4.275h2.408v4.275zm2.917 0h-2.405v-4.275h2.408l-.003 4.275zm2.913 0h-2.408v-4.275h2.408v4.275zm2.917 0h-2.408v-4.275h2.408v4.275zm2.916 0h-2.408v-4.275h2.408v4.275zm2.914 0h-2.408v-4.275h2.408v4.275zm2.913 0h-2.408v-4.275h2.408v4.275zm2.914 0h-2.408v-4.275h2.408v4.275zm-29.024 9.647c.118.459.25.919.388 1.373v-1.067h2.408v4.272h-1.288c.039.099.078.207.117.3h27.543v-4.878h-29.168zm5.719 4.578h-2.408v-4.272h2.408v4.272zm2.91 0h-2.408v-4.272h2.408v4.272zm2.917 0h-2.414v-4.272h2.408l.006 4.272zm2.913 0h-2.408v-4.272h2.408v4.272zm2.917 0h-2.408v-4.272h2.408v4.272zm2.916 0h-2.408v-4.272h2.408v4.272zm2.914 0h-2.408v-4.272h2.408v4.272zm2.913 0h-2.408v-4.272h2.408v4.272zm2.914 0h-2.408v-4.272h2.408v4.272zm-22.231 9.649c.076.096.148.204.226.301h1.592v2.051c.172.205.34.409.515.601v-2.664h2.408v4.286h-.975c.096.1.189.205.301.301h18.308v-4.876h-22.375zm7.648 4.575h-2.408v-4.268h2.408v4.268zm2.917 0h-2.408v-4.268h2.408v4.268zm2.916 0h-2.408v-4.268h2.408v4.268zm2.914 0h-2.408v-4.268h2.408v4.268zm2.913 0h-2.408v-4.268h2.408v4.268zm2.914 0h-2.408v-4.268h2.408v4.268zm-6.153 9.65c.274.156.554.3.837.456v-.15h2.408v1.352l.512.237v-1.589h2.407v2.599a.768.768 0 00.145.054v-2.959h-6.309zm198.667-74.674h.018-.018zm-18.54 88.664h.301-.301zm-19.344-45.113c.057.192.106.384.16.574-.048-.19-.1-.382-.16-.574zm37.884-43.56h.018-.018zM158.391 93.493v1.283h13.445v-1.283h-13.445zM321.642 227.15h.301-.301zm-19.344-45.113c.057.192.106.384.16.574-.048-.19-.1-.382-.16-.574zm37.884-43.56h.018-.018zm-18.54 88.664h.301-.301zm-19.344-45.104c.057.192.106.384.16.574-.048-.19-.1-.382-.16-.574z" fill="#587EEC"/><path d="M252.032 152.23s-1.186-.165-1.186-1.89c0-1.724-.849-4.945-.849-4.945 0-.015-.734-5.608-1.749-6.497-1.014-.89-2.317-6.111-2.317-6.111s-.223-2.833-.677-3.443c-.455-.609-1.069-2.103-1.975-4.232-.906-2.13-4.683-3.605-4.683-3.605s-6.829-3.954-8.764-5.243a2.946 2.946 0 01-.491-.369c-.337-.442-1.806-.451-1.806-.451-.153-.967-.301-2.079-.349-3.085 0-.108 0-.216-.015-.324a10.404 10.404 0 004.578-5.654c.036-.114.066-.235.099-.349a.971.971 0 00.587-.528c.175-.388.178-.842.394-1.202.253-.427.735-.655 1.114-.976.957-.812 1.204-2.178 1.159-3.422-.03-1.007-.193-2.022-.13-3.022l.018-.253c.018-.15.039-.3.067-.444.147-.745.469-1.448.65-2.187.18-.74.198-1.571-.223-2.208-.617-.935-1.902-1.12-3.031-1.217-1.279-.108-2.423.033-3.241-1.027a11.613 11.613 0 00-1.289-1.553c-.168-.157-1.806-1.154-1.806-1.22a7.328 7.328 0 00-5.101-.39c-.849.246-1.649.648-2.51.85-1.857.438-3.994-.037-5.571 1.024-.879.6-1.406 1.556-1.9 2.487a181.85 181.85 0 01-1.222 2.298c-.665 1.26-1.342 2.539-1.622 3.933a6.16 6.16 0 00-.108.92v.487c0 .106 0 .208.018.301s.015.123.024.187c.009.063.024.204.042.3.018.096.054.264.09.396.015.058.037.112.055.166.03.102.066.2.105.3.021.051.042.105.066.156.045.105.099.208.154.301.024.042.042.081.066.12.084.14.176.274.277.402.644.803 1.592 1.313 2.293 2.064v.338a10.271 10.271 0 004.689 8.396c0 .114.016.232.022.346.058.891.047 1.786-.034 2.676a1.263 1.263 0 00-.999-.444 1.465 1.465 0 00-.385.033l-.027-.021v.027c-.662.162-1.478.85-2.257 2.806 0 0-2.372 2.667-4.178 2.556-1.806-.111-6.378 2.776-6.378 2.776s-4.46 2.89-5.417 5.834a41.038 41.038 0 01-1.921 4.891l-5.514 11.34-1.017 8.998s.563 4.001.452 4.611c-.112.61 2.314 6.111 2.314 6.111s8.015 14.056 11.29 14.777l.235-.165c.14.073.288.128.442.165l.674-.475a7.253 7.253 0 01-.051 1.586c-.451 1.388.169 10.446.957 12.221.789 1.776.509 25.055.509 25.055l-.112 2.054s0 .067.028.181l-.028.486.082.042a5.765 5.765 0 01-.082 1.956c-.282.901-.397 3.449-.397 3.449s-2.254 14.384-1.186 17.274c1.069 2.89 1.978 6.056 1.978 6.056s1.128 3.605.054 4.221c-1.075.616-4.13 1.649-3.5 3.151.571 1.388 2.741 5.107 3.063 5.651l-.027.285-.442 4.786c.072.632.243 1.248.509 1.826.484 1.043 1.426 2.124 3.217 2.007.301-.021.65-.057.987-.102 3.278-.439 7.314-1.899 7.314-1.899a2.94 2.94 0 01-.572-.471 1.652 1.652 0 01-.502-1.202c.048-.871-1.587-5.023-1.993-6.044a8.08 8.08 0 01-.096-.232s3.726-3.887 3.106-7.333c0 0-4.124-2.403-2.766-3.722 1.357-1.319 3.783-5.107 3.783-5.107s.112-14.164 0-16.279a17.49 17.49 0 01.208-4.395c.045-.219.099-.433.156-.643a39.44 39.44 0 005.671.43c.692 0 1.396-.001 2.107-.043 0 .201.009.417.027.649.156 3.509.448 9.662.686 11.948.337 3.277 2.2 12.109 2.2 12.109s-3.554 2.278.62 7.889c0 0 0 2.034-.277 2.328a25.472 25.472 0 00-.713 2.933c-.175 1.057-.247 2.126.036 2.682.677 1.328 4.74 1.22 4.74 1.22l.1-.018a5.82 5.82 0 014.301 1.295c1.544 1.237 7.404.694 10.576.3a49.67 49.67 0 002.074-.3c.04-.141.054-.287.042-.433-.033-.778-.644-2.484-4.786-4.007 0 0-3.894-2.614-3.84-4.891h-.533c.328-.018.539 0 .539 0s-1.526-5.558-.903-6.008c.623-.451-1.243-6.61-1.243-6.61s-1.068-10.334-1.126-11.058a6.319 6.319 0 01.28-1.832l-.28-5.666s-.054-1.884 0-2.497a12.453 12.453 0 00-.129-1.589c-.027-.21-.054-.429-.084-.646 1.459-.369 2.407-.712 2.407-.712l-.168-19.722c1.24-2.403 1.469-7.675 1.463-11.415 0-2.404-.109-4.182-.109-4.182l1.695-2.761s.391-3.304-.229-4.028c-.274-.328-.15-.667.075-.947.118-.093.241-.177.371-.252 0 0-.019-.027-.04-.066.119-.099.244-.188.377-.268 0 0-.602-.931-.064-1.324.506.342.958.6 1.301.811a4.464 4.464 0 01-.049.345l.145-.3.533.3s2.654-5.278 2.597-6.056c-.057-.778 1.806-4.056 1.806-4.056s.226-1.721 1.243-2.442c1.017-.721.789-5.945.789-5.945s.283-2.722.96-3.834c.677-1.111-.617-2.61-.617-2.61zm-50.793-2.316l.051 1.258-.518-.832.467-.426z" fill="url(#paint0_linear_6_373)"/><path d="M245.398 174.893l-.65 2.764s-5.207-2.653-6.146-6.023c-.939-3.371 1.571-4.651 1.571-4.651l4.852 2.052.373 5.858z" fill="#fff"/><path opacity=".1" d="M245.398 174.893l-.65 2.764s-5.207-2.653-6.146-6.023c-.939-3.371 1.571-4.651 1.571-4.651l4.852 2.052.373 5.858z" fill="#000"/><path d="M216.176 268.956s-4.815 1.766-8.126 1.988c-1.758.117-2.682-.958-3.157-1.994a6.027 6.027 0 01-.497-1.818l.43-4.762.229-2.535 7.034-1.824.996 3.041.093.231c.401 1.015 2.005 5.146 1.957 6.008a1.648 1.648 0 00.493 1.187c.162.182.346.342.548.478zm32.894-2.422a1.2 1.2 0 01-.042.43s-10.299 1.715-12.406 0a5.584 5.584 0 00-4.334-1.268s-3.985.108-4.651-1.201c-.276-.55-.204-1.617-.033-2.668.175-.985.409-1.959.699-2.917l.159-.126.948-.76 11.1-.328h.085c-.055 2.265 3.768 4.864 3.768 4.864 4.06 1.502 4.659 3.199 4.707 3.974z" fill="#fff"/><path opacity=".1" d="M249.07 266.534c.011.145-.005.29-.045.43 0 0-10.296 1.715-12.403 0a5.595 5.595 0 00-4.331-1.268s-3.988.108-4.651-1.202c-.276-.552-.207-1.616-.036-2.667 1.535.153 3.958.535 4.909 1.445 1.439 1.385 3.877 2.767 5.373 2.875 1.171.075 8.174.297 11.184.387zm-32.894 2.422s-4.815 1.766-8.126 1.988c-1.758.117-2.682-.958-3.154-1.997 1.225.411 2.925.844 3.819.447 1.059-.468 4.816-.772 6.923-.901.16.175.341.33.538.463z" fill="#000"/><path d="M223.321 126.605c-3.972-1.541-9.083-6.633-7.807-9.013.283-.6.452-1.248.497-1.91.082-.899.094-1.803.036-2.704a37.15 37.15 0 00-.533-4.398s12.403.279 11.681 2.103c-.211.535-.244 1.463-.187 2.502.058 1.04.208 2.214.365 3.209.216 1.364.433 2.403.433 2.403s-.758 1.06-1.204 1.118c-.445.057 2.42 8.886-3.281 6.69z" fill="#CF6F80"/><path opacity=".1" d="M213.169 261.283l-.093.102c-3.708-4.476-8.192 1.103-8.192 1.103l-.067-.118.229-2.535 7.034-1.824.996 3.041.093.231zm27.429-3.271s-2.709-.058-4.154 1.216c-1.445 1.274-8.427.277-8.126 0a.983.983 0 00.156-.456l.948-.76 11.1-.328c.042.201.076.328.076.328z" fill="#000"/><path d="M217.783 222.86a8.445 8.445 0 00-.457 1.541 17.609 17.609 0 00-.208 4.374c.112 2.103 0 16.196 0 16.196s-2.38 3.758-3.708 5.083c-1.327 1.324 2.709 3.704 2.709 3.704.602 3.424-3.046 7.294-3.046 7.294-3.708-4.476-8.192 1.105-8.192 1.105s-2.438-4.206-3.046-5.708c-.608-1.502 2.38-2.541 3.431-3.151 1.05-.61-.051-4.206-.051-4.206s-.888-3.151-1.942-6.026c-1.053-2.875 1.162-17.187 1.162-17.187s.114-2.541.388-3.427c.139-.64.166-1.298.082-1.947-.018-.219-.04-.403-.055-.526s-.027-.18-.027-.18l.042-.072 1.505-2.8s12.136 4.17 11.413 5.933zm22.815 34.821s-2.709-.057-4.154 1.202c-1.445 1.259-8.427.276-8.126 0 .301-.276.277-2.322.277-2.322-4.097-5.582-.602-7.847-.602-7.847s-1.83-8.787-2.161-12.047c-.232-2.277-.518-8.396-.672-11.89a452.604 452.604 0 01-.105-2.536l3.347-.672.43-.088 8.073-1.616s.222 1.502.373 2.731c.075.525.117 1.053.126 1.583-.054.601 0 2.482 0 2.482l.274 5.638a6.407 6.407 0 00-.274 1.824c.054.718 1.105 10.998 1.105 10.998s1.827 6.134 1.204 6.576c-.623.442.885 5.984.885 5.984z" fill="#587EEC"/><path opacity=".1" d="M227.195 110.683c-.211.535-.244 1.463-.187 2.502a10.319 10.319 0 01-10.961-.204 36.993 36.993 0 00-.533-4.401s12.403.273 11.681 2.103z" fill="#000"/><path d="M231.99 104.044a10.18 10.18 0 01-.506 3.187 10.284 10.284 0 01-4.366 5.548 10.317 10.317 0 01-13.136-1.924 10.266 10.266 0 01-2.585-6.565v-.246a10.253 10.253 0 012.953-7.383 10.296 10.296 0 017.345-3.073 10.317 10.317 0 017.344 3.073 10.273 10.273 0 012.954 7.383h-.003z" fill="#CF6F80"/><path opacity=".1" d="M223.321 126.605c-3.972-1.541-9.083-6.633-7.807-9.013.283-.6.452-1.248.497-1.91l5.438 4.461 3.365 2.755 2.559-6.501c.216 1.364.433 2.403.433 2.403s-.758 1.061-1.204 1.118c-.445.057 2.42 8.883-3.281 6.687z" fill="#000"/><path d="M237.386 146.321l-4.542 76.155-5.923.387-15.338-44.158 2.516-52.425.53-11.076 6.82 5.591 3.368 2.755 2.634-6.691 4.897 4.26 5.038 25.202z" fill="#587EEC"/><path opacity=".1" d="M217.783 222.86a8.445 8.445 0 00-.457 1.541 43.684 43.684 0 01-12.418-3.872l-.082-.042.027-.484.015-.252 1.505-2.8s12.133 4.146 11.41 5.909zm10.688 1.553a30.495 30.495 0 01-3.329.379 452.604 452.604 0 01-.105-2.536l3.347-.673.087 2.83zm8.789-1.802c-2.14.556-5.445 1.181-8.404.79l-.042-1.905 8.073-1.616s.222 1.487.373 2.731z" fill="#000"/><path opacity=".1" d="M228.802 223.749c-12.34 2.103-23.642-3.926-23.642-3.926l.109-2.043s.28-23.159-.497-24.934c-.776-1.776-1.381-10.779-.942-12.161.44-1.382-1.604-22.104-1.604-22.104l-.331-8.412-12.118-4.9 5.418-11.271a40.547 40.547 0 001.884-4.867c.942-2.926 5.315-5.801 5.315-5.801s4.485-2.872 6.258-2.764c1.773.109 4.096-2.541 4.096-2.541 1.716-4.365 3.269-2.388 3.269-2.388 0 .207 0 0-.085.646-.602 4.791 9.734 19.932 9.882 20.199l.984 23.931.996 30.285 1.008 33.051z" fill="#000"/><path d="M228.471 223.749c-12.34 2.103-23.645-3.926-23.645-3.926l.112-2.043s.28-23.159-.5-24.934c-.78-1.776-1.381-10.779-.939-12.161.442-1.382-1.604-22.104-1.604-22.104l-.334-8.412-12.124-4.918 5.418-11.271a41.3 41.3 0 001.884-4.867c.939-2.926 5.315-5.801 5.315-5.801s4.485-2.872 6.255-2.763c1.769.108 4.096-2.542 4.096-2.542 1.718-4.365 3.612-2.388 3.612-2.388 0 .207-.181.3-.085.646 1.325 4.647 9.403 19.932 9.55 20.199l.997 23.931.996 30.285.996 33.069z" fill="#fff"/><path opacity=".1" d="M225.145 137.146c-1.327-.552-8.358-8.564-8.358-8.564v-1.824c-.256-.601-1.776-.234-3.01.186l.53-11.076.602.499c1.318 4.644 10.083 20.512 10.236 20.779z" fill="#000"/><path d="M225.479 136.482c-1.33-.552-8.361-8.564-8.361-8.564v-1.824c-.256-.601-1.775-.234-3.009.186l.532-11.076.602.499c1.321 4.644 10.089 20.515 10.236 20.779z" fill="#fff"/><path opacity=".1" d="M205.16 176.44c.166 0 8.581-.883 8.581-.883s5.096 10.001 4.762 12.434c-.334 2.433-.939 4.587-2.989 4.206-2.05-.382-11.031.3-11.031.3l.677-16.057z" fill="#000"/><path d="M204.826 175.777c.166 0 8.581-.884 8.581-.884s5.093 10.004 4.762 12.434c-.331 2.431-.942 4.588-2.989 4.206-2.047-.381-11.031.301-11.031.301l.677-16.057z" fill="#fff"/><path d="M211.168 171.081s7.723 4.143 7.889 5.407c.165 1.265-3.931-.552-4.816-.772a11.046 11.046 0 00-1.773-.276l-5.902.159 4.602-4.518z" fill="#CF6F80"/><path opacity=".1" d="M222.99 137.663a.812.812 0 10.002-1.624.812.812 0 00-.002 1.624z" fill="#000"/><path d="M222.99 137.333a.812.812 0 10.002-1.624.812.812 0 00-.002 1.624z" fill="#3F3D56"/><path opacity=".1" d="M224.486 172.775a.812.812 0 10.002-1.624.812.812 0 00-.002 1.624z" fill="#000"/><path d="M224.486 172.442a.812.812 0 10.002-1.624.812.812 0 00-.002 1.624z" fill="#3F3D56"/><path opacity=".1" d="M223.8 155.219a.812.812 0 10.002-1.624.812.812 0 00-.002 1.624z" fill="#000"/><path d="M223.8 154.889a.812.812 0 10.002-1.624.812.812 0 00-.002 1.624z" fill="#3F3D56"/><path d="M242.533 175.272s.554.829 0 1.216c-.554.388.054 1.325.054 1.325s-1.381.808-.773 1.535c.608.727.222 4.011.222 4.011l-1.661 2.746s.099 1.769.105 4.16c0 3.731-.219 8.977-1.435 11.368l.168 19.62s-5.818 2.121-10.688 1.475l-.722-31.483s1.053-17.854 1.442-21.279c.227-1.778.319-3.57.277-5.362 0 0-.166-5.359-.723-7.847 0 0-.602-10.776-.662-13.759-.027-1.427.048-5.59.133-9.55.093-4.329.198-8.411.198-8.411l-1.098-8.676s1.098-.112 1.429.33c.149.138.31.262.482.37 1.896 1.279 8.596 5.215 8.596 5.215s3.708 1.472 4.596 3.581c.888 2.109 1.505 3.605 1.935 4.205.43.601.665 3.425.665 3.425s1.276 5.197 2.273 6.078c.996.88 1.724 6.479 1.724 6.479l-8.803 6.91s-.774 11.494-.94 11.938c-.165.445 3.206 10.38 3.206 10.38z" fill="#fff"/><path d="M242.867 175.272s.551.829 0 1.217c-.551.387.051 1.324.051 1.324s-1.372.817-.77 1.544c.602.727.222 4.011.222 4.011l-1.661 2.746s.099 1.769.108 4.161c0 3.731-.219 8.976-1.435 11.367l.165 19.62s-5.827 2.121-10.691 1.475l-.719-31.483s1.053-17.854 1.442-21.278c.227-1.778.319-3.571.274-5.363 0 0-.166-5.359-.72-7.847 0 0-.602-10.775-.665-13.759-.027-1.426.051-5.59.133-9.55.093-4.329.198-8.411.198-8.411l-1.45-8.793s1.45 0 1.784.447c.147.14.309.264.482.37 1.896 1.28 8.599 5.215 8.599 5.215s3.705 1.472 4.593 3.581c.888 2.109 1.505 3.605 1.938 4.206.433.601.662 3.424.662 3.424s1.276 5.198 2.273 6.078c.996.88 1.715 6.468 1.715 6.468l-8.803 6.909s-.774 11.494-.943 11.939c-.168.444 3.218 10.382 3.218 10.382z" fill="#fff"/><path opacity=".1" d="M232.324 127.596l.794 2.313-4.183 4.206c.093-4.326.198-8.412.198-8.412l-1.45-8.793s1.45 0 1.784.448c.147.14.308.262.482.367l3.558 10.244-1.183-.373z" fill="#000"/><path d="M231.99 126.932l.797 2.313-4.183 4.206c.093-4.329.198-8.411.198-8.411l-1.453-8.793s1.453 0 1.784.447c.148.139.309.263.482.37l3.56 10.241-1.185-.373z" fill="#fff"/><path opacity=".1" d="M231.99 104.044a10.18 10.18 0 01-.506 3.187.429.429 0 01-.325-.081c-.078-2.704-1.412-5.242-3.052-7.402a7.805 7.805 0 00-1.655-1.713 3.245 3.245 0 00-2.246-.633c-.903.123-1.7.736-2.612.814-1.204.099-2.282-.733-3.476-.775a3.424 3.424 0 00-2.556 1.183 6.996 6.996 0 00-1.369 2.536 14.83 14.83 0 00-.765 4.374c-.015.841-.096 1.895-.879 2.202a4.484 4.484 0 00-1.134-3.428l-.018-.018v-.246a10.253 10.253 0 012.953-7.383 10.296 10.296 0 017.345-3.073 10.317 10.317 0 017.344 3.073 10.273 10.273 0 012.954 7.383h-.003z" fill="#000"/><path d="M225.958 87.722a7.103 7.103 0 00-5.002-.39c-.834.246-1.62.646-2.465.847-1.806.436-3.913-.036-5.463 1.018-.861.601-1.379 1.55-1.86 2.473l-1.204 2.289c-.656 1.253-1.318 2.526-1.592 3.905-.274 1.38-.109 2.923.767 4.032.638.808 1.58 1.316 2.273 2.076a4.507 4.507 0 011.131 3.424c.786-.3.861-1.357.879-2.199.034-1.488.291-2.962.765-4.374a6.963 6.963 0 011.369-2.535 3.434 3.434 0 012.555-1.184c1.204.042 2.285.871 3.477.772.903-.075 1.703-.69 2.612-.81a3.232 3.232 0 012.246.633 7.716 7.716 0 011.652 1.713c1.643 2.159 2.977 4.692 3.055 7.402.34.249.831-.075.999-.46.169-.385.175-.835.388-1.202.247-.423.72-.649 1.09-.967.939-.808 1.174-2.169 1.138-3.404-.036-1.234-.277-2.487-.043-3.7.142-.746.461-1.443.636-2.179.174-.736.195-1.562-.217-2.196-.602-.931-1.869-1.114-2.974-1.201-1.255-.109-2.378.03-3.178-1.025a11.546 11.546 0 00-1.264-1.544c-.16-.156-1.77-1.148-1.77-1.214z" fill="#512E4E"/><path opacity=".1" d="M193.245 151.073l-3.145-5.804-.997 8.956s.554 3.977.443 4.587c-.112.61 2.269 6.077 2.269 6.077s7.865 13.982 11.076 14.703l10.85-7.739-2.877-3.647s-.996-.388-1.246 0c0 0-5.342-9.175-5.896-9.839-.554-.664-.446-1.988-.446-1.988s-.83-.884-.553-1.713c.276-.829-1.605-3.704-1.605-3.704l1.716-1.601-9.589 1.712z" fill="#000"/><path d="M190.265 144.609l-.831.661-.996 8.955s.554 3.977.442 4.587c-.111.61 2.273 6.078 2.273 6.078s7.861 13.981 11.073 14.702l10.853-7.739-2.88-3.647s-.997-.387-1.246 0c0 0-5.343-9.175-5.896-9.838-.554-.664-.443-1.989-.443-1.989s-.831-.883-.554-1.713c.277-.829-1.607-3.704-1.607-3.704l1.716-1.601-11.904-4.752z" fill="#fff"/><path opacity=".1" d="M241.814 179.691c.601.73.222 4.007.222 4.007l-1.661 2.746s.099 1.773.105 4.161l-2.793.871a1.65 1.65 0 01-.78.05 1.649 1.649 0 01-1.372-1.681l.482-15.505 6.516 2.488c-.554.384.054 1.328.054 1.328s-1.381.805-.773 1.535z" fill="#000"/><path d="M242.148 179.357c.602.73.222 4.011.222 4.011l-1.661 2.746s.099 1.769.108 4.16l-2.844.887a1.634 1.634 0 01-1.466-.258 1.627 1.627 0 01-.641-1.341l.485-15.552 6.519 2.487c-.557.385.051 1.325.051 1.325s-1.375.808-.773 1.535z" fill="#fff"/><path d="M244.306 171.967s-.443 2.821-1.55 2.986c-1.108.166-1.605 4.564-2.709 4.407-1.105-.156-.373-4.088-.334-4.851.039-.763-1.204-3.924-.274-4.642.93-.718 3.873 0 3.873 0l.994 2.1z" fill="#CF6F80"/><path opacity=".1" d="M246.662 150.244l2.089-4.206s.831 3.206.831 4.918c0 1.713 1.162 1.881 1.162 1.881s1.273 1.502.602 2.595c-.672 1.094-.943 3.816-.943 3.816s.22 5.194-.776 5.912-1.204 2.433-1.204 2.433-1.83 3.26-1.773 4.035c.057.775-2.546 6.023-2.546 6.023s1.273-6.522-6.146-9.34c0 0-.057-2.214.497-2.821.553-.607 1.417-.883.876-3.95-.542-3.067-.157-6.732-.157-7.468 0-.737 1.661-5.327 1.661-5.327l5.827 1.499z" fill="#000"/><path d="M247.565 145.438l1.824.6s.834 3.206.834 4.918c0 1.713 1.162 1.881 1.162 1.881s1.273 1.502.602 2.595c-.672 1.094-.939 3.816-.939 3.816s.219 5.194-.777 5.912-1.219 2.433-1.219 2.433-1.827 3.26-1.77 4.035c.058.775-2.549 6.023-2.549 6.023s1.276-6.522-6.146-9.34c0 0-.054-2.214.5-2.821.554-.607 1.417-.883.876-3.95-.542-3.067-.157-6.732-.157-7.469 0-.736 1.661-5.326 1.661-5.326l6.098-3.307z" fill="#fff"/><path opacity=".1" d="M207.279 254.449s2.908-1.824 4.816-.499c1.908 1.325-4.816.499-4.816.499zm22.592-5.639s2.573-.331 4.734 1.992c2.161 2.322-4.734-1.992-4.734-1.992zm3.765-145.283c-.37.319-.846.547-1.093.97-.21.364-.216.812-.385 1.202-.168.391-.659.709-.999.463-.078-2.704-1.415-5.243-3.055-7.406a7.716 7.716 0 00-1.652-1.712 3.242 3.242 0 00-2.249-.634c-.903.124-1.697.736-2.609.811-1.204.102-2.285-.73-3.48-.772a3.411 3.411 0 00-2.552 1.187 6.95 6.95 0 00-1.369 2.532 14.835 14.835 0 00-.765 4.374c-.018.839-.096 1.884-.873 2.196.018.222.018.445 0 .667.783-.3.861-1.357.879-2.199.034-1.488.292-2.962.765-4.374a6.963 6.963 0 011.369-2.535 3.411 3.411 0 012.553-1.184c1.203.042 2.287.871 3.479.772.903-.075 1.703-.69 2.609-.81a3.242 3.242 0 012.249.633 7.718 7.718 0 011.652 1.712c1.64 2.16 2.977 4.693 3.055 7.403.34.249.831-.075.999-.46.169-.385.175-.835.385-1.202.247-.423.723-.649 1.093-.967.939-.808 1.174-2.169 1.138-3.404v-.114c-.058 1.07-.343 2.16-1.144 2.851zm-22.218-.213c-.693-.76-1.638-1.268-2.273-2.073a4.402 4.402 0 01-.876-2.46 4.627 4.627 0 00.876 3.121c.635.808 1.58 1.316 2.273 2.076a4.502 4.502 0 011.134 2.679 4.498 4.498 0 00-1.134-3.343zm23.949-9.07c-.178.736-.494 1.436-.639 2.178a7 7 0 00-.093 1.502 5.82 5.82 0 01.093-.853c.145-.745.461-1.442.639-2.178.103-.406.137-.826.099-1.244-.019.2-.052.4-.099.595z" fill="#000"/><path opacity=".1" d="M153.049 266.663c16.197 0 29.327-2.104 29.327-4.701 0-2.597-13.13-4.702-29.327-4.702-16.197 0-29.327 2.105-29.327 4.702s13.13 4.701 29.327 4.701z" fill="#587EEC"/><path d="M153.994 171.898h-1.887v42.41h1.887v-42.41z" fill="#535461"/><path d="M165.853 214.178l-.118 1.911-.168 2.704-.07 1.123-.165 2.704-.072 1.124-.169 2.703-1.902 30.663a5.207 5.207 0 01-5.195 4.873h-9.89a5.21 5.21 0 01-3.563-1.41 5.193 5.193 0 01-1.629-3.463l-1.893-30.684-.169-2.703-.069-1.124-.168-2.704-.07-1.123-.168-2.704-.121-1.911a2.71 2.71 0 012.709-2.857h20.229a2.703 2.703 0 011.954.865 2.673 2.673 0 01.707 2.013z" fill="#3F3D56"/><path d="M165.735 216.089l-.168 2.695h-25.036l-.168-2.695h25.372zm-.237 3.818l-.166 2.698h-24.563l-.168-2.698h24.897zm-.238 3.824l-.166 2.695h-24.087l-.169-2.695h24.422z" fill="#9D9CB5"/><path d="M137.482 187.793c10.989 7.937 15.576 20.35 15.576 20.35s-13.243-.454-24.235-8.391c-10.992-7.937-15.569-20.347-15.569-20.347s13.237.451 24.228 8.388z" fill="#587EEC"/><path d="M113.245 179.405s13.748 7.616 18.158 13.922c4.409 6.305 21.655 14.816 21.655 14.816" stroke="#535461" stroke-width="2" stroke-miterlimit="10"/><path d="M144.576 171.805c5.981 4.317 8.482 11.073 8.482 11.073s-7.208-.246-13.192-4.563c-5.983-4.317-8.478-11.076-8.478-11.076s7.205.246 13.188 4.566z" fill="#587EEC"/><path d="M131.388 167.239s7.482 4.145 9.881 7.576c2.398 3.431 11.789 8.063 11.789 8.063" stroke="#535461" stroke-width="2" stroke-miterlimit="10"/><path d="M161.741 182.536c-6.871 7.537-8.325 17.388-8.325 17.388s9.689-2.374 16.554-9.914c6.865-7.54 8.325-17.388 8.325-17.388s-9.682 2.376-16.554 9.914z" fill="#587EEC"/><path d="M178.301 172.625s-8.951 7.727-11.226 13.05c-2.276 5.323-13.659 14.249-13.659 14.249" stroke="#535461" stroke-width="2" stroke-miterlimit="10"/><path d="M413.979 179.883s-4.969-24.676-3.067-27.746c0 0 .069-2.854-.045-6.492v-.418c.335.223.684.424 1.044.601a8.466 8.466 0 005.689.733l-1.505-1.673c-.361-.4-.737-.832-.816-1.361-.078-.529.139-1 .326-1.472 1.429-3.605 1.504-8.138-1.25-10.89-2.326-2.313-2.892-5.299-5.417-7.411-1.845-1.547-2.859-3.815-3.817-6.008-.809-1.854-1.625-3.723-2.088-5.687-.362-1.535-.506-3.125-1.003-4.624-.496-1.499-1.426-2.956-2.88-3.626-.518-.237-1.093-.372-1.565-.688-.62-.417-.993-1.096-1.442-1.691-2.278-3.004-9.908-1.235-13.52-.015a7.6 7.6 0 00-2.672 1.478l.033-.054c.027-.045.06-.09.09-.135a4.737 4.737 0 00-1.011 1.126c-.527.833-.747 1.803-1.186 2.704-.53 1.067-3.476 4.044-2.209 5.242.088.081.19.146.301.193.475.197.999.249 1.505.15l-.055.129a8.792 8.792 0 00-.653 3.332c0 4.935 4.078 8.937 9.114 8.937a9.203 9.203 0 002.79-.43c.021.114.039.229.06.343 0 .045.015.09.021.135l-.159.222a.34.34 0 00-.027-.039l-4.726 6.591c-.722.508-4.882 3.512-5.116 5.765a439.719 439.719 0 00-.494 5.354l-.033.618a1.854 1.854 0 01-1.505.406c-1.475-.24-1.475 5.407-1.475 5.407s-.981.902-1.655.121c-.674-.782-2.456 1.865-2.456 1.865l-11.166.481-.256.015-.602-1.86a.788.788 0 00-1.12-.444l-.042.024-.078.054-.039.036a.52.52 0 00-.061.063l-.036.042-.018.018a.766.766 0 00-.108.673l.518 1.595c-2.155.433-4.359 1.652-2.562 5.011l-9.107-1.679 2.946 2.469 15.212 3.133c-.202.361-.07.884.559 1.62 2.709 3.175 7.645 4.037 9.632 4.259a17.043 17.043 0 001.953 3.305l-.171 3.163s-5.03 24.112-5.951 25.334a14.24 14.24 0 001.273-1.673c-1.459 4.954-3.5 11.734-4.036 12.749-.861 1.623-1.658 8.187-.677 8.607.301.129 1.162.066 2.39-.027v.544l-.054 20.605s.246 12.639-.431 13.843c-.677 1.205-.858 3.732-.858 3.732s-2.708 4.983-4.854 6.987a.314.314 0 01-.048.042l-.067-.468s-2.579 3.25-8.286 3.067c0 0-3.434 2.229 1.659 2.349 5.092.12 11.596-.18 11.596-.18s4.542-6.91 8.347-6.008v5.236h1.164v-5.321a4.75 4.75 0 001.359-1.354c.357-.538.6-1.144.715-1.779a3.807 3.807 0 00-1.36-3.524 2.261 2.261 0 01-.744-1.646l-.042.036c0-.105-.027-.213-.039-.324-.334-2.704-.752-8.283.725-12.41 2.026-5.66 2.64-13.543 1.165-18.236a41.803 41.803 0 01-1.171-4.569 44.244 44.244 0 01-.099-.556c1.008.136 2.006.337 2.989.601 3.416.94 10.889 1.115 17.27 1.064.015.174.033.357.054.54.114 1.274.352 2.534.71 3.762.801 2.403 1.168 12.998 1.168 12.998s1.033 8.712.47 12.257c-.301 1.971-.602 3.951-.774 5.939v.04s-1.691 4.806-2.928 7.417c-.03.066-.064.132-.094.195-.329.03-.654.102-.966.213 0 0-1.658 3.305-3.311 3.852-1.652.546-1.104 2.346 2.637 1.685s9.391-1.202 9.391-1.202l.243-3.37 1.15-1.436-.301 3.361 1.225-.24-.162-4.089 1.881-2.349s2.272-2.019-1.105-5.99v.087c-.036-.057-.069-.117-.108-.174v-.018c-.56-.865-1.006-2.479-.19-5.342 1.475-5.173 2.333-9.868 2.333-9.868s3.292-12.579-.665-18.53h.174a9.997 9.997 0 01-.906-2.977c2.929-.168 5.803-.697 8.148-1.838-.009-.012-1.421-29.861-2.589-34.614zm-37.18-20.819v.06l-.602.031.602-.091zm-2.064.286a.667.667 0 00-.271.129c-.259.365-.422.79-.473 1.235l-.939-.211s-.659-.141-1.607-.3l-.449-.451a96.196 96.196 0 003.739-.402z" fill="url(#paint1_linear_6_373)"/><path d="M405.805 261.538l-.358 4.257 1.2-.24-.18-4.617-.662.6z" fill="#1D2366"/><path d="M378.406 241.326c-1.447 4.116-1.038 9.671-.713 12.368.121.998.232 1.605.232 1.605s-2.164 4.92-2.345 5.107c-.18.186-6.368 3.956-6.368 3.956l-4.325 2.521s-4.389-1.92-2.285-2.581a3.2 3.2 0 001.135-.772c2.107-1.998 4.752-6.964 4.752-6.964s.181-2.52.843-3.719c.662-1.198.421-13.795.421-13.795l.052-20.533v-2.677l8.231.06c.052.909.171 1.813.355 2.704a41.441 41.441 0 001.147 4.554c1.451 4.684.849 12.528-1.132 18.166z" fill="#FFB0B1"/><path opacity=".1" d="M377.925 255.299s-2.164 4.921-2.345 5.107c-.18.186-6.368 3.956-6.368 3.956l-4.325 2.521s-4.389-1.92-2.285-2.581c.43-.172.817-.435 1.135-.772l.186 1.313 1.442-.06 12.34-11.082c.109.991.22 1.598.22 1.598z" fill="#000"/><path d="M377.775 253.98l-12.41 11.157-1.442.06-.301-2.102s-2.522 3.238-8.126 3.058c0 0-3.365 2.22 1.622 2.34 4.988.12 11.356-.18 11.356-.18s4.449-6.91 8.172-6.009v5.219h1.144v-5.267a4.742 4.742 0 002.028-3.124 3.827 3.827 0 00-1.327-3.509 2.261 2.261 0 01-.716-1.643z" fill="#1D2366"/><path d="M406.948 247.743c-.8 2.854-.364 4.462.184 5.324v.018a9.843 9.843 0 011.439 3.506l.048.27-5.647 8.216-3.064 1.202s-4.927-1.679-4.027-2.16c.226-.117.578-.742.982-1.604 1.203-2.599 2.865-7.393 2.865-7.393v-.039c.174-1.98.451-3.954.758-5.919.551-3.535-.46-12.214-.46-12.214s-.361-10.554-1.144-12.954a19.795 19.795 0 01-.701-3.737c-.163-1.502-.199-2.74-.199-2.74s3.245-4.506 9.192.36c.476.388.894.842 1.243 1.346 4.108 5.834.801 18.686.801 18.686s-.828 4.674-2.27 9.832z" fill="#FFB0B1"/><path opacity=".1" d="M408.628 256.861l-5.647 8.216-3.063 1.202s-4.927-1.679-4.028-2.16c.226-.117.578-.742.982-1.604 2.085-.018 3.166 1.964 3.166 1.964l2.642-.42s3.486-6.838 4.268-7.255c.783-.418.121-3.121.121-3.121v-.688c.021.024.039.051.063.075v.018a9.825 9.825 0 011.439 3.506l.057.267z" fill="#000"/><path d="M400.218 264.657s-1.504-2.758-4.388-1.74c0 0-1.622 3.305-3.244 3.84-1.623.534-1.081 2.337 2.585 1.679 3.666-.658 9.192-1.202 9.192-1.202l.241-3.361 3.726-4.738s2.221-2.01-1.084-5.966v.688s.662 2.704-.12 3.121c-.783.418-4.256 7.258-4.256 7.258l-2.652.421z" fill="#1D2366"/><path opacity=".1" d="M378.045 215.897c.052.908.171 1.812.355 2.703-3.389-.495-6.534-.249-8.595-.087v-2.676l8.24.06zm30.706 4.076s-4.815.235-10.558.283c-.163-1.502-.199-2.74-.199-2.74s3.245-4.506 9.192.36c.476.389.894.842 1.243 1.346.093.256.201.507.322.751z" fill="#000"/><path d="M408.751 219.432s-21.092 1.019-27.521-.781c-6.429-1.799-12.801-.24-13.761-.658-.96-.417-.181-6.957.662-8.576.843-1.62 5.466-17.995 5.466-17.995l4.448-23.15 4.687-1.289.331-.093 8.165-2.247 5.984-1.649s11.897 46.362 10.877 49.781a8.757 8.757 0 00-.175 4.023c.156.912.438 1.799.837 2.634z" fill="#1D2366"/><path d="M362.539 152.44s-4.214 4.506-1.023 7.018c3.19 2.511 5.288.24 5.288.24l-4.265-7.258z" fill="#C7DAF5"/><path opacity=".1" d="M362.539 152.44s-4.214 4.506-1.023 7.018c3.19 2.511 5.288.24 5.288.24l-4.265-7.258z" fill="#000"/><path d="M396.583 122.814s-.494.468-1.237 1.159c-1.06.989-2.628 2.434-4.018 3.644-1.927 1.673-3.516 2.902-2.947 1.854.569-1.049.461-2.875.178-4.585-.021-.114-.04-.228-.061-.339a31.248 31.248 0 00-.93-3.713s3.112-4.014 4.834-5.597c.641-.601 1.09-.847 1.117-.429.03.561.451 1.802.975 3.118a72.29 72.29 0 001.138 2.749c.529 1.225.951 2.139.951 2.139z" fill="#FFB0B1"/><path opacity=".1" d="M394.542 118.049a8.904 8.904 0 01-2.055 4.236 8.933 8.933 0 01-3.928 2.601 31.337 31.337 0 00-.991-4.052s5.86-7.556 5.951-6.027c.021.58.478 1.866 1.023 3.242zm-6.567 8.856l.758-1.066s.503 3.058 2.351 1.709c1.848-1.349 1.938 10.151 1.938 10.151l-1.983 29.6-14.333-.856.406-14.303 1.623-7.21 4.012-10.481 2.386-3.464 2.842-4.08z" fill="#000"/><path d="M393.022 137.882l-1.806 26.764-.189 2.836-7.991-.478-.301-.018-6.02-.36.406-14.306 1.623-7.21 4.012-10.481 2.386-3.464 2.842-4.095.758-1.063s.503 3.058 2.351 1.709l.039-.027c1.806-1.141 1.89 10.193 1.89 10.193z" fill="#1D2366"/><path d="M378.945 142.605s-.719 1.502-2.164 1.259c-1.444-.244-1.441 5.407-1.441 5.407s-.961.901-1.623.12-2.408 1.86-2.408 1.86l-10.937.48s4.867 2.22 3.913 8.938c0 0 16.523-1.022 17.065-2.581.542-1.559-2.405-15.483-2.405-15.483z" fill="#fff"/><path opacity=".03" d="M378.945 142.605s-.719 1.502-2.164 1.259c-1.444-.244-1.441 5.407-1.441 5.407s-.961.901-1.623.12-2.408 1.86-2.408 1.86l-10.937.48s4.867 2.22 3.913 8.938c0 0 16.523-1.022 17.065-2.581.542-1.559-2.405-15.483-2.405-15.483z" fill="#000"/><path d="M347.159 155.261l2.883 2.458 23.736 4.977-2.944-2.998-23.675-4.437zm40.861-27.41c-.395.601-1.523 3.678-2.465 6.363-.786 2.238-1.442 4.206-1.442 4.206s-1.532 9.956-2.314 11.755c-.783 1.8-.359 8.817-.359 8.817l-2.916 17.331s-1.321 8.937-3.362 14.276c-2.014 5.254-4.256 7.717-4.325 7.796.903-1.22 5.824-25.235 5.824-25.235l1.625-30.288s.238-2.878.479-5.338c.24-2.461 5.116-5.819 5.116-5.819l4.702-6.672c.472.63.156 1.73-.563 2.808z" fill="#fff"/><path d="M375.761 166.776s-6.923-.3-10.275-4.32c-3.353-4.019 7.75-1.604 7.75-1.604l2.886.661-.361 5.263z" fill="#FFB0B1"/><path opacity=".1" d="M408.089 212.778a8.757 8.757 0 00-.175 4.023c-7.551.534-15.629-1.502-15.629-1.502-1.505 1.382-5.469 3.418-5.469 3.418l-2.161-26.736c-1.382-3.605-1.923-22.492-1.923-22.492s.123-.989.301-2.47c0-.036 0-.075.015-.111.538-4.137 1.607-11.902 2.131-12.951.722-1.442-2.222-5.278-2.222-5.278l1.34-11.401.162-1.376c2.823-1.258 4.987-5.278 4.987-5.278l1.662-2.905c1.806-1.156 1.899 10.178 1.899 10.178l-1.806 26.764 5.984-1.649s11.924 46.348 10.904 49.766z" fill="#000"/><path d="M415.839 214.626c-8.232 4.08-23.193.3-23.193.3-1.505 1.382-5.469 3.419-5.469 3.419l-2.164-26.737c-1.378-3.605-1.92-22.492-1.92-22.492s1.739-14.092 2.462-15.531c.21-.421.108-1.045-.142-1.718a21.705 21.705 0 01-1.318-10.061l.578-4.9.159-1.373c2.827-1.262 4.991-5.281 4.991-5.281l1.505-2.632 2.769-4.848 1.312-2.296.223.202 1.7 1.538 1.806 1.502c2.357 1.983 6.429 5.473 8.53 7.609 1.848 1.881 2.432 9.196 2.6 14.703.111 3.626.045 6.467.045 6.467-1.863 3.062 3.01 27.639 3.01 27.639 1.135 4.749 2.516 34.49 2.516 34.49z" fill="#fff"/><path opacity=".03" d="M400.038 130.192s-5.649 10.734-4.993 14.813c.656 4.08 2.522 8.697 1.622 9.776a3.331 3.331 0 01-2.646 1.318c-.903.061-3.31 1.74-3.31 1.92 0 .18-2.225.18-4.214 1.021-1.99.842-4.927 1.319-4.927 1.319s-5.719-.18-6.251.361c-.533.541-1.081 3.776.06 6.357 1.14 2.58 2.408 4.506 3.365 4.857.957.352 7.031-1.679 11.958-2.16 4.927-.48 10.275-4.377 10.275-4.377s5.89-2.103 6.922-5.639c1.033-3.535-1.261-22.969-1.261-22.969s-1.733-9.058-6.6-6.597z" fill="#000"/><path opacity=".03" d="M399.316 129.291s-5.65 10.736-4.988 14.813c.662 4.077 2.522 8.697 1.62 9.778a3.325 3.325 0 01-2.643 1.319c-.903.06-3.311 1.74-3.311 1.92 0 .18-2.224.18-4.214 1.018-1.989.838-4.927 1.319-4.927 1.319s-5.718-.18-6.248.361c-.53.54-1.083 3.779.06 6.356 1.144 2.578 2.408 4.507 3.365 4.858.957.351 7.031-1.679 11.958-2.157 4.927-.478 10.276-4.38 10.276-4.38s5.887-2.103 6.907-5.636c1.02-3.533-1.261-22.972-1.261-22.972s-1.728-9.055-6.594-6.597z" fill="#000"/><path d="M399.86 129.651s-5.649 10.737-4.987 14.813c.662 4.077 2.522 8.697 1.622 9.776a3.303 3.303 0 01-2.645 1.322c-.903.06-3.311 1.739-3.311 1.916 0 .178-2.221.181-4.214 1.022-1.992.841-4.927 1.318-4.927 1.318s-5.718-.18-6.251.361c-.533.541-1.081 3.779.06 6.357 1.141 2.577 2.408 4.506 3.365 4.857.957.352 7.031-1.679 11.958-2.16 4.927-.48 10.275-4.377 10.275-4.377s5.89-2.102 6.923-5.638c1.032-3.536-1.246-22.97-1.246-22.97s-1.758-9.042-6.622-6.597z" fill="#fff"/><path opacity=".1" d="M399.737 158.449s-4.515-.902-2.944.6c1.571 1.502 1.562 2.818 3.486 2.758 1.923-.06-.542-3.358-.542-3.358zm7.63 32.318s-2.041 1.379 1.863 4.557c3.903 3.179-1.863-4.557-1.863-4.557zm-3.895 11.335c0 .18-.722 6.609 1.98 8.216 2.703 1.607-1.98-8.216-1.98-8.216z" fill="#000"/><path d="M360.559 151.716c-2.18.075-6.887.739-4.446 5.285 2.158 4.022 5.785 1.333 7.825-.706a7.675 7.675 0 00-3.379-4.579zm3.407 4.543l.09-.093-.09.093z" fill="#FFB0B1"/><path opacity=".1" d="M399.138 123.901c-2.312 1.577-4.25 2.908-4.629 3.184-1.035.766-3.01 5.264-4.283 7.559-1.014 1.847-4.31 2.322-5.553 2.439l.16-1.373c2.826-1.262 4.99-5.281 4.99-5.281l5.586-9.776 1.923 1.746 1.806 1.502z" fill="#000"/><path d="M399.138 123.721c-2.312 1.577-4.25 2.908-4.629 3.187-1.035.763-3.01 5.26-4.283 7.556-1.014 1.847-4.31 2.322-5.553 2.439l.16-1.373c2.826-1.262 4.99-5.281 4.99-5.281l5.586-9.776 1.923 1.74s.722.594 1.806 1.508z" fill="#DCE7FF"/><path d="M394.689 116.066a8.871 8.871 0 01-1.571 5.05 8.935 8.935 0 01-15.546-1.505 8.892 8.892 0 01-.335-6.186 8.913 8.913 0 013.786-4.908 8.943 8.943 0 0111.508 1.741 8.9 8.9 0 012.158 5.808z" fill="#FFB0B1"/><path opacity=".1" d="M410.268 146.032a7.914 7.914 0 01-2.88-3.088c-.503-.991-.837-2.136-1.695-2.839-.773-.631-1.806-.784-2.769-1.066-3.166-.934-5.821-3.818-5.92-7.111-.048-1.55.436-3.097.217-4.632a5.125 5.125 0 00-1.006-2.389 8.344 8.344 0 00-.869-.934c-.422-.396-.864-.781-1.249-1.202a4.657 4.657 0 01-.633-.856 4.106 4.106 0 01-.346-.796c-.602-1.838-.054-4.019-.716-5.879l-.036-.102c-.25-.661-.759-1.322-1.466-1.373-.707-.051-1.312.535-1.986.796-1.412.547-2.935-.384-4.112-1.334-1.177-.949-2.504-2.033-4-1.823-.99.141-1.772.814-2.684 1.162a3.81 3.81 0 01-.635.184 8.907 8.907 0 014.01-4.505 8.93 8.93 0 0111.157 2.152 8.894 8.894 0 012.039 5.672 8.808 8.808 0 01-.195 1.86 73.042 73.042 0 001.138 2.749l1.7 1.538 1.806 1.502c2.357 1.982 6.429 5.473 8.53 7.609 1.848 1.887 2.426 9.199 2.6 14.705z" fill="#000"/><path d="M378.012 107.078c.431-.874.644-1.854 1.159-2.683.756-1.201 2.074-1.971 3.428-2.436 3.537-1.217 11.01-2.983 13.243 0 .44.601.804 1.268 1.412 1.682.463.316 1.023.451 1.532.688 1.423.667 2.332 2.121 2.817 3.605.485 1.484.629 3.076.984 4.605.455 1.962 1.252 3.822 2.047 5.669.936 2.181 1.929 4.443 3.735 5.984 2.465 2.103 3.01 5.08 5.297 7.388 2.709 2.739 2.622 7.261 1.225 10.851-.183.471-.391.964-.319 1.466.072.501.446.958.798 1.357l1.48 1.668c-3.503.844-7.467-.983-9.098-4.188-.503-.991-.837-2.133-1.698-2.839-.77-.631-1.805-.781-2.766-1.063-3.166-.938-5.82-3.825-5.92-7.117-.048-1.547.437-3.094.217-4.627a5.108 5.108 0 00-1.008-2.403c-.828-1.078-2.077-1.802-2.751-3.004-1.141-2.01-.274-4.62-1.096-6.777-.253-.661-.758-1.322-1.466-1.373-.707-.051-1.312.535-1.989.796-1.409.547-2.932-.382-4.108-1.334-1.177-.952-2.505-2.034-4.003-1.82-.991.138-1.77.811-2.682 1.162-.674.258-2.041.49-2.631-.078-1.246-1.145 1.641-4.11 2.161-5.179z" fill="#591D4B"/><path opacity=".1" d="M408.589 141.743c-.506-.992-.837-2.133-1.698-2.836-.77-.631-1.806-.784-2.769-1.067-3.163-.934-5.818-3.821-5.92-7.113-.048-1.548.436-3.098.22-4.63a5.132 5.132 0 00-1.009-2.388c-.83-1.079-2.079-1.803-2.751-3.004-1.14-2.007-.273-4.618-1.098-6.778-.25-.658-.759-1.318-1.463-1.372-.704-.055-1.315.537-1.989.799-1.409.546-2.935-.385-4.109-1.334-1.174-.95-2.507-2.034-4.003-1.824-.99.141-1.772.814-2.681 1.163-.675.258-2.044.493-2.634-.075-1.24-1.202 1.646-4.161 2.164-5.224.43-.878.644-1.854 1.162-2.683a3.41 3.41 0 01.087-.135 4.78 4.78 0 00-.99 1.123c-.515.829-.729 1.803-1.159 2.683-.521 1.063-3.407 4.031-2.164 5.224.602.571 1.956.337 2.631.078.903-.351 1.691-1.024 2.681-1.162 1.505-.214 2.83.871 4.003 1.82 1.174.949 2.709 1.881 4.112 1.334.674-.261 1.264-.85 1.986-.796.722.054 1.204.712 1.466 1.373.822 2.157-.045 4.767 1.095 6.777.675 1.181 1.924 1.92 2.751 3.004a5.11 5.11 0 011.009 2.404c.219 1.532-.265 3.079-.217 4.626.099 3.304 2.754 6.179 5.92 7.117.954.282 1.996.432 2.766 1.063.864.706 1.204 1.848 1.698 2.839 1.631 3.205 5.595 5.032 9.098 4.188l-.698-.787c-3.037.045-6.11-1.68-7.497-4.407z" fill="#000"/><path opacity=".1" d="M387.839 128.032c-.394.601-1.523 3.677-2.465 6.363-.882-.343-1.682-2.527-1.682-2.527l4.701-6.675c.482.661.166 1.757-.554 2.839z" fill="#000"/><path d="M388.02 127.851c-.394.601-1.523 3.677-2.465 6.363-.882-.339-1.683-2.526-1.683-2.526l4.702-6.672c.481.657.165 1.757-.554 2.835z" fill="#DCE7FF"/><path d="M360.685 158.542l-2.607-8.205a.76.76 0 01.237-.819.77.77 0 011.226.354l2.607 8.195-.259 1.715-1.204-1.24z" fill="#BE8B87"/><path opacity=".1" d="M358.325 149.616a.773.773 0 01.967.499l2.606 8.195-.196 1.286.19.199.259-1.716-2.622-8.195a.768.768 0 00-.963-.499.77.77 0 00-.4.301c.051-.028.104-.051.159-.07z" fill="#fff"/><path d="M360.685 158.542l1.463-.463-.214 1.406-.045.31-.428-.445-.776-.808z" fill="#EFC8C4"/><path d="M361.461 159.35a.307.307 0 01.094-.078.128.128 0 01.141 0 .325.325 0 01.051.081.264.264 0 00.187.123l-.045.3-.428-.426z" fill="#727A9C"/><path d="M358.063 153.251s5.228-.03 3.997 2.19c-1.231 2.221-3.154 2.488-3.154 2.488l-.843-4.678z" fill="#FFB0B1"/><path d="M325.549 53.62h-.226c-8.981 0-16.924 4.743-21.493 11.742-4.569-7-12.511-11.743-21.493-11.743h-.225a25.607 25.607 0 00-17.928 7.56 25.511 25.511 0 00-7.412 17.96c0 8.355 3.666 20.21 10.814 29.964 13.62 18.586 36.244 34.848 36.244 34.848s22.625-16.259 36.241-34.848c7.151-9.755 10.814-21.61 10.814-29.964a25.513 25.513 0 00-7.411-17.96 25.607 25.607 0 00-17.925-7.56zm-3.23 56.913a5.08 5.08 0 01-4.716-3.251h-5.37a1.699 1.699 0 01-1.598-1.154l-1.649-4.959-5.219 18.202a1.69 1.69 0 01-1.619 1.216h-.106a1.664 1.664 0 01-1.565-1.394l-5.378-32.288-3.931 19.106a1.681 1.681 0 01-1.628 1.271h-7.564a1.675 1.675 0 01-1.235-.465 1.674 1.674 0 01-.384-1.872 1.698 1.698 0 01.954-.912c.212-.08.438-.116.665-.107h6.239l5.569-25.688a1.684 1.684 0 011.712-1.29 1.684 1.684 0 011.598 1.428l5.493 32.938 4.677-16.286a1.66 1.66 0 011.574-1.201h.034a1.68 1.68 0 011.595 1.153l2.982 8.955h4.088a5.027 5.027 0 011.528-2.265 5.056 5.056 0 015.205-.807 5.038 5.038 0 013.088 4.259 5.041 5.041 0 01-.537 2.678 5.044 5.044 0 01-4.493 2.745l-.009-.012z" fill="#EC5863"/></g><path d="M286.213 156l-10.197 5.887v-11.774L286.213 156z" fill="#fff"/><defs><linearGradient id="paint0_linear_6_373" x1="220.348" y1="270.953" x2="220.348" y2="86.097" gradientUnits="userSpaceOnUse"><stop stop-color="gray" stop-opacity=".25"/><stop offset=".54" stop-color="gray" stop-opacity=".12"/><stop offset="1" stop-color="gray" stop-opacity=".1"/></linearGradient><linearGradient id="paint1_linear_6_373" x1="67296.1" y1="139515" x2="67296.1" y2="44626.4" gradientUnits="userSpaceOnUse"><stop stop-color="gray" stop-opacity=".25"/><stop offset=".54" stop-color="gray" stop-opacity=".12"/><stop offset="1" stop-color="gray" stop-opacity=".1"/></linearGradient><filter id="filter0_d_6_373" x=".83" y="0" width="557.17" height="320" filterUnits="userSpaceOnUse" color-interpolation-filters="sRGB"><feFlood flood-opacity="0" result="BackgroundImageFix"/><feColorMatrix in="SourceAlpha" values="0 0 0 0 0 0 0 0 0 0 0 0 0 0 0 0 0 0 127 0" result="hardAlpha"/><feOffset dy="4"/><feGaussianBlur stdDeviation="9"/><feColorMatrix values="0 0 0 0 0.345098 0 0 0 0 0.494118 0 0 0 0 0.92549 0 0 0 0.18 0"/><feBlend in2="BackgroundImageFix" result="effect1_dropShadow_6_373"/><feBlend in="SourceGraphic" in2="effect1_dropShadow_6_373" result="shape"/></filter></defs></svg>