<svg width="547" height="395" fill="none" xmlns="http://www.w3.org/2000/svg"><path opacity=".6" d="M317.818 69.55c-35.067-1.22-68.493-12.548-100.362-24.94-31.87-12.391-63.457-26.123-97.703-32.69-22.019-4.227-47.2-4.822-64.938 6.99-17.073 11.363-22.587 30.98-25.554 49.183-2.23 13.697-3.525 28.11 2.574 40.934 4.245 8.9 11.78 16.383 16.992 24.909 18.13 29.667 5.313 66.252-14.338 95.243-9.216 13.606-19.908 26.552-27.02 41.019-7.11 14.468-10.405 31.042-4.18 45.797 6.17 14.614 20.865 25.61 36.79 33.335 32.343 15.677 70.452 20.162 107.615 22.732 82.262 5.629 164.967 3.19 247.446.751 30.525-.907 61.185-1.819 91.212-6.551 16.675-2.625 33.893-6.788 46.001-16.836 15.365-12.76 19.178-34.358 8.879-50.358-17.275-26.829-65.034-33.496-77.111-62.29-6.642-15.849.182-33.506 9.841-48.206 20.714-31.53 55.444-59.196 57.273-95.242 1.259-24.758-15.437-49.546-41.252-61.262-27.055-12.291-64.575-10.74-84.534 9.574-20.553 20.928-56.673 28.981-87.631 27.908z" fill="#587EEC"/><path d="M122.004 365.36s-27.7-20.953-32.932-47.606a52.691 52.691 0 00-16.222-29.082 88.64 88.64 0 00-12.978-9.675" stroke="#9AB1F3" stroke-width="2" stroke-miterlimit="10"/><path d="M56.482 262.206c2.428 3.286 3.526 17.209 3.526 17.209s-12.979-5.114-15.411-8.395a7.405 7.405 0 011.538-10.353 7.396 7.396 0 0110.347 1.539zm23.278 10.925c.252 4.077-6.381 16.363-6.381 16.363s-8.124-11.359-8.38-15.435a7.399 7.399 0 016.92-7.755 7.39 7.39 0 017.836 6.827h.005zm22.562 31.405c-1.833 3.649-13.764 10.905-13.764 10.905s-1.274-13.908.56-17.557a7.39 7.39 0 0113.542 1.062 7.402 7.402 0 01-.338 5.59zm11.729 27.595c-1.193 3.906-11.724 13.072-11.724 13.072s-3.61-13.49-2.417-17.401a7.392 7.392 0 0113.6-1.308 7.404 7.404 0 01.541 5.637zm-52.679-32.76c4.03.544 16.766-5.211 16.766-5.211s-10.747-8.909-14.797-9.453a7.397 7.397 0 00-6.862 11.82 7.39 7.39 0 004.893 2.844zm14.127 32.105c4.029-.69 14.439-9.988 14.439-9.988s-12.923-5.281-16.947-4.591a7.386 7.386 0 00-4.827 3.011 7.403 7.403 0 00-.217 8.257 7.393 7.393 0 007.562 3.311h-.01zM93.504 360.8c4.084 0 15.919-7.403 15.919-7.403s-11.84-7.393-15.924-7.393a7.393 7.393 0 00-7.394 7.398 7.393 7.393 0 007.393 7.398h.006z" fill="#587EEC"/><path d="M391.091 184.133s17.073-30.261 42.808-38.979a52.647 52.647 0 0026.652-19.951 88.34 88.34 0 007.851-14.175" stroke="#9AB1F3" stroke-width="2" stroke-miterlimit="10"/><path d="M484.559 105.485c-2.932 2.842-16.575 5.785-16.575 5.785s3.349-13.556 6.28-16.403a7.393 7.393 0 0112.447 5.447 7.404 7.404 0 01-2.152 5.171zm-7.716 24.506c-4.029.796-17.058-4.153-17.058-4.153s10.173-9.574 14.177-10.355a7.387 7.387 0 017.727 3.079 7.394 7.394 0 01-.025 8.322 7.382 7.382 0 01-4.821 3.107zm-28.082 26.547c-3.858-1.336-12.626-12.2-12.626-12.2s13.598-3.115 17.466-1.779a7.391 7.391 0 014.658 9.443 7.4 7.4 0 01-9.498 4.536zm-25.806 15.299c-4.029-.665-14.484-9.912-14.484-9.912s12.888-5.372 16.912-4.707a7.404 7.404 0 013.113 13.323 7.397 7.397 0 01-5.516 1.291l-.025.005zm25.454-56.596c-.006 4.087 7.403 15.944 7.403 15.944s7.398-11.842 7.398-15.924a7.398 7.398 0 00-7.391-7.591 7.383 7.383 0 00-5.295 2.236 7.389 7.389 0 00-2.095 5.355l-.02-.02zm-29.931 18.272c1.219 3.901 11.815 12.996 11.815 12.996s3.525-13.515 2.297-17.415a7.4 7.4 0 00-3.664-4.154 7.385 7.385 0 00-5.518-.444 7.396 7.396 0 00-4.92 9.017h-.01zm-26.627 21.755c.544 4.031 9.448 14.8 9.448 14.8s5.747-12.724 5.203-16.771a7.405 7.405 0 00-2.794-5.017 7.386 7.386 0 00-8.307-.547 7.402 7.402 0 00-3.55 7.535z" fill="#587EEC"/><path opacity=".25" d="M484.559 105.485c-2.932 2.842-16.575 5.785-16.575 5.785s3.349-13.556 6.28-16.403a7.393 7.393 0 0112.447 5.447 7.404 7.404 0 01-2.152 5.171zm-7.716 24.506c-4.029.796-17.058-4.153-17.058-4.153s10.173-9.574 14.177-10.355a7.387 7.387 0 017.727 3.079 7.394 7.394 0 01-.025 8.322 7.382 7.382 0 01-4.821 3.107zm-28.082 26.547c-3.858-1.336-12.626-12.2-12.626-12.2s13.598-3.115 17.466-1.779a7.391 7.391 0 014.658 9.443 7.4 7.4 0 01-9.498 4.536zm-25.806 15.299c-4.029-.665-14.484-9.912-14.484-9.912s12.888-5.372 16.912-4.707a7.404 7.404 0 013.113 13.323 7.397 7.397 0 01-5.516 1.291l-.025.005zm25.454-56.596c-.006 4.087 7.403 15.944 7.403 15.944s7.398-11.842 7.398-15.924a7.398 7.398 0 00-7.391-7.591 7.383 7.383 0 00-5.295 2.236 7.389 7.389 0 00-2.095 5.355l-.02-.02zm-29.931 18.272c1.219 3.901 11.815 12.996 11.815 12.996s3.525-13.515 2.297-17.415a7.4 7.4 0 00-3.664-4.154 7.385 7.385 0 00-5.518-.444 7.396 7.396 0 00-4.92 9.017h-.01zm-26.627 21.755c.544 4.031 9.448 14.8 9.448 14.8s5.747-12.724 5.203-16.771a7.405 7.405 0 00-2.794-5.017 7.386 7.386 0 00-8.307-.547 7.402 7.402 0 00-3.55 7.535z" fill="#000"/><path d="M392.073 183.533s3.354-34.59 23.328-52.983a52.71 52.71 0 0016.287-29.046 88.28 88.28 0 001.455-16.126" stroke="#9AB1F3" stroke-width="2" stroke-miterlimit="10"/><path d="M445.664 73.707c-1.511 3.79-12.813 12.014-12.813 12.014s-2.427-13.752-.901-17.542a7.391 7.391 0 0113.664-.12 7.409 7.409 0 01.05 5.663v-.015zm2.875 25.559c-3.339 2.349-17.274 3.12-17.274 3.12s5.429-12.87 8.768-15.219a7.396 7.396 0 015.59-1.383 7.388 7.388 0 014.886 3.048 7.4 7.4 0 01-1.97 10.43v.004zm-14.937 35.668c-4.069.343-16.489-6.047-16.489-6.047s11.181-8.365 15.25-8.708a7.392 7.392 0 015.391 1.721 7.403 7.403 0 01.877 10.426 7.393 7.393 0 01-5.029 2.598v.01zm-17.38 24.436c-3.954 1.008-17.27-3.16-17.27-3.16s9.605-10.134 13.558-11.162a7.394 7.394 0 018.229 10.911 7.397 7.397 0 01-4.517 3.411zm.352-62.059c1.652 3.734 13.206 11.59 13.206 11.59s1.964-13.828.312-17.562a7.39 7.39 0 00-13.552.406 7.402 7.402 0 00.034 5.581v-.015zm-19.963 28.835c2.694 3.069 16.06 7.09 16.06 7.09s-2.256-13.782-4.95-16.851a7.392 7.392 0 00-13.005 4.375 7.394 7.394 0 001.895 5.386zm-15.557 30.699c2.135 3.477 14.63 9.701 14.63 9.701s.106-13.964-2.014-17.446a7.394 7.394 0 00-13.345 2.237 7.404 7.404 0 00.754 5.508h-.025z" fill="#587EEC"/><path d="M366.388 48.072c.836-3.069 1.843-6.153 2.548-9.262-.846 3.11-1.858 6.203-2.548 9.262z" fill="url(#paint0_linear_4_6)"/><path d="M362.641 77.633c-.071-.121-.121-.242-.176-.353 0-.05-.051-.09-.071-.141-.11.052-.222.097-.337.136a7.703 7.703 0 01-.68.232c-.232.065-.327.1-.504.14-.146.051-.296.09-.448.117l.04.09c.187-.04.368-.075.554-.126l.051.625c.211 0 .408-.03.599-.03.091-.005.181-.005.272 0h1.007a13.928 13.928 0 01-.307-.69zm102.236 162.834c-2.367-3.19-7.091-37.427-7.091-37.427s-9.292-24.345-6.759-34.06c2.533-9.716-6.92-34.575-6.92-34.575s-6.245-2.716-6.582-6.747c0 0-25.499-8.063-26.692-14.11-.967-4.959-16.781-8.517-22.462-9.641-1.732-6.994-3.475-13.52-4.759-17.083a41.032 41.032 0 00-.977-2.822c-2.171-5.543-8.879-6.047-13.744-5.603a7.501 7.501 0 00-1.153-2.636 1.448 1.448 0 00-.459-.7 2.622 2.622 0 00-.332-.242 1.599 1.599 0 00-.342-.434 2.449 2.449 0 00-.454-.322 3.033 3.033 0 00-.362-.166 4.85 4.85 0 00-.902-.247 7.401 7.401 0 00-1.088-.141 6.621 6.621 0 002.322-1.699c.436-.512.76-1.109.952-1.753a5.162 5.162 0 00.211-1.653c-.13.23-.282.448-.453.65.212-2.233-.967-4.5-1.642-6.723a19.911 19.911 0 01-.443-8.894c.675-4.465 2.347-8.98 3.48-13.525a.319.319 0 000-.076 35.16 35.16 0 001.098-6.899c.197-4.701-1.007-9.393-2.941-13.676-1.717-3.795-4.251-7.529-8.129-9.07-2.88-1.165-6.109-.979-9.211-1.17-6.96-.433-13.598-2.883-20.215-5.11C322.21 1.686 315.401-.34 308.436.048c-6.965.388-14.132 3.75-17.31 9.917-1.007 1.925-1.586 4.067-2.79 5.876-2.256 3.412-6.295 5.12-9.664 7.473-3.37 2.354-6.336 5.695-7.555 9.68a12.933 12.933 0 00-.272 6.627c.11.496.251.984.423 1.462a10.36 10.36 0 002.191 3.583 10.673 10.673 0 002.488 1.93 14.633 14.633 0 003.676 1.43c-.045.152-.09.313-.141.47-.08.257-.151.503-.226.78-.166.62-.323 1.25-.454 1.885a.618.618 0 000 .136 41.188 41.188 0 00-.926 8.723 40.272 40.272 0 00.211 4.153c2.015 20.45 18.886 36.58 39.731 37.628.715.035 1.436.055 2.166.055h1.007c.328.434.65.877.957 1.311.307.433.589.877.856 1.31l-.73-.756-.73-.67a5.973 5.973 0 01-.66.761 12.206 12.206 0 00-1.456-.414c-2.09-.463-5.272-.634-9.463.63-3.852 1.154-8.561 3.528-14.071 8.038l-26.848 16.126-14.525 8.839-5.232 12.799s-3.934 15.209-8.31 32.635c-.171.05-.338.1-.504.161a9.815 9.815 0 00-10.898 9.368c-8.703 10.582-9.197 21.165-7.152 26.023.185.455.418.889.695 1.295 1.34 1.935 3.843 6.924 6.381 12.24-.065.439-.106.807-.126 1.084-.004.09-.004.181 0 .272 0 0 1.511 22.833-3.525 29.379-1.103 1.426-.937 3.301 0 5.377 3.374 7.468 16.715 17.441 16.715 17.441s16-.086 24.915-1.059c-.026.897-.046 1.789-.066 2.661-.201 8.809-.201 16.191-.201 16.191l-.333 9.237s-3.022 19.467-4.532 24.834c-.952 3.366.146 34.534 1.103 57.448h157.644c1.854-13.556-.76-54.742-.76-54.742s-2.483-10.648-2.574-19.93a.078.078 0 01-.007-.033c0-.011.002-.023.007-.033 0-.811 0-1.602.031-2.378l1.143-.041 2.055-.07h.186s.05-.192.166-.504a9.638 9.638 0 011.103-2.202c.876-1.295 2.246-2.565 4.306-2.651 1.138-.045 2.901-.968 4.89-2.328a.094.094 0 00.041 0c5.353-3.623 12.429-10.311 14.146-11.409 2.362-1.512 13.674-11.59 13.674-11.59s1.687-2.137 3.485-4.712l.065-.091c2.236-3.225 4.614-7.08 4.029-8.295-1.007-2.176.675-7.382.675-7.382 5.253-9.62-.312-22.369-2.679-25.559zM367.491 85.469c.048.15.079.306.091.463-.126-.166-.252-.342-.378-.504l-.121-.16-.086-.122.192-.262v.035c.133.164.235.35.302.55zm-1.692-4.465c-.549.11-.982.212-1.264.287a31.93 31.93 0 01-1.008-1.915 14.612 14.612 0 012.272 1.628zm-.947.796a.077.077 0 010-.03l.04.03c.207.136.408.267.594.403.167.121.318.237.469.358a4.989 4.989 0 01-.322.504 22.615 22.615 0 01-.504-.821 1.817 1.817 0 01-.277-.444zm-3.022-6.218a14.884 14.884 0 012.926 0c.136 0 .257.025.378.045.273.042.541.112.801.207a5.858 5.858 0 011.062 2.827l-.272.04-.267.05c-.503.086-1.007.172-1.4.252l-.503.106a17.54 17.54 0 00-1.073.262 9.654 9.654 0 00-.201-.393c-.111-.216-.227-.438-.328-.655-.1-.217-.231-.464-.337-.69-.071-.121-.121-.242-.176-.353 0-.05-.051-.09-.071-.141a1.254 1.254 0 01-.076-.166 50.97 50.97 0 01-.861-1.865c-.03-.06-.055-.126-.08-.187l.382-.025v.131l.096.555zM241.67 388.188c-.04-7.503-.584-15.622-2.095-23.241a798.303 798.303 0 00-2.488-12.034l-1.551.207h-.141a1157.797 1157.797 0 00-8.652-37.548s-8.784-33.556-7.766-36.232c.131-.348-.035-1.285-.408-2.661-2.125-7.629-10.999-28.653-14.102-35.839 0-.031-.025-.066-.035-.091a74.757 74.757 0 00-.977-2.253l.73-10.723.041-.645.095-1.371-.04-.035.04-.635s-7.665-6.289-20.648-10.83a55.179 55.179 0 00-1.567-.529c.65-4.338 1.511-9.237 2.634-14.009a41.5 41.5 0 01.343-1.411c.106-.468.226-.922.347-1.381.192-.745.398-1.481.61-2.207.7-.222 1.39-.468 2.07-.73l.262-.101a37.178 37.178 0 0019.453-17.417 37.21 37.21 0 003.21-25.921 37.001 37.001 0 00-6.487-13.682 27.237 27.237 0 00-1.546-1.894c1.455-3.311 3.173-6.461 3.314-9.681a9.997 9.997 0 000-1.224v-.051c-.187-2.071-1.103-4.167-3.239-6.369-3.117-3.231-7.554-4.868-11.991-5.655-4.437-.786-8.959-.806-13.422-1.335-7.398-.887-14.605-3.17-22.003-3.87a52.252 52.252 0 00-26.606 4.535c-5.505 2.52-11.08 6.924-11.413 12.966-.272 4.994 3.203 9.782 2.327 14.715-.871 4.848-5.807 8.663-5.374 13.566.167 1.915 1.149 3.628 2.378 5.155.423.504.871 1.008 1.334 1.512 1.793 1.9 3.767 3.724 4.769 6.117.041.101.081.202.116.303.851 2.363.469 5.351-1.636 6.707a.08.08 0 01.025.035c.03.041.06.071.085.111a.036.036 0 000-.025 5.517 5.517 0 002.876 1.794l.428.131a23.62 23.62 0 00-1.007 1.184l-.217.287a21.122 21.122 0 00-1.511 2.344c-.256.453-.503.907-.71 1.36a17.095 17.095 0 00-1.485 4.369c-.539 3.336.221 6.813-.595 10.079-1.007 4.031-4.195 7.125-5.993 10.87-3.404 7.055-1.475 15.334-.79 23.125.931 10.582-.58 21.21-2.086 31.722l-2.397 16.786-6.043 42.169c-.736 5.15-1.607 10.582-5.036 14.558h.035s0 .03-.035.04c1.03.451 2.124.733 3.243.837 4.477.448 9.221-1.719 13.25-4.087a62.626 62.626 0 009.03-6.344 828.787 828.787 0 00-1.329 4.933.417.417 0 010 .05c-5.686 21.669-14.832 61.394-14.832 61.394s-.831 1.728-1.909 4.303h142.022a247.963 247.963 0 01-4.416-5.502l-.489-.701zM136.513 187.826c.035-.06.061-.115.096-.171v1.094c0 .07 0 0 0 0 0 .206-.045.413-.081.62v.045l.504.186.584.242a150.955 150.955 0 0010.486 3.704c.362.116.73.227 1.098.333l.075.625c.091.64.176 1.29.257 1.94v.05c.227 1.799.448 3.593.645 5.347 0 0-9.247-3.528-9.131 1.829a2.747 2.747 0 000 .287c-.01.128-.01.256 0 .383.085 4.173 1.39 6.647 1.652 7.917a.369.369 0 01-.081.141 2.76 2.76 0 00-.221 1.557 15.35 15.35 0 00.211 2.691c-.272.166-.539.333-.806.504-.201.126-.393.267-.589.408a74.82 74.82 0 00-4.83-12.457c-1.385-2.852-2.941-5.825-2.926-8.955 0-.201 0-.408.025-.614.057-.907.229-1.803.514-2.666.116-.328.242-.65.383-.968.329-.754.697-1.491 1.103-2.207.262-.474.539-.942.806-1.416.085-.141.166-.287.246-.428l-.02-.021zM362.641 77.633c-.071-.121-.121-.242-.176-.353 0-.05-.051-.09-.071-.141-.11.052-.222.097-.337.136a7.703 7.703 0 01-.68.232c-.232.065-.327.1-.504.14l-.448.117.04.09c.187-.04.368-.075.554-.126l.051.625c.211 0 .408-.03.599-.03h1.279a13.928 13.928 0 01-.307-.69z" fill="url(#paint1_linear_4_6)"/><path d="M252.599 151.65l-3.022 1.335s-19.697 76.567-19.697 82.755c0 6.188 41.766 40.622 41.766 40.622l6.517-44.014s-9.357-100.931-25.564-80.698z" fill="#E8F5FF"/><path d="M344.213 127.295l-17.45-9.111a34.988 34.988 0 00-5.117-11.666c-2.554-3.689-5.948-7.312-10.178-9.202-10.692-4.797 45.225-29.979 45.225-29.979a91.199 91.199 0 003.107 8.92c2.881 7.115 7.661 16.317 13.82 18.938 10.47 4.46-29.407 32.1-29.407 32.1z" fill="#FFB0B1"/><path opacity=".1" d="M359.8 76.257a41.71 41.71 0 01-14.204 21.282 41.675 41.675 0 01-23.95 8.979c-2.554-3.689-5.948-7.312-10.178-9.202-10.692-4.797 45.225-29.979 45.225-29.979a91.199 91.199 0 003.107 8.92z" fill="#000"/><path d="M361.372 63.543a41.709 41.709 0 01-7.017 23.165 41.673 41.673 0 01-18.698 15.359 41.638 41.638 0 01-24.074 2.376 41.66 41.66 0 01-21.336-11.41 41.712 41.712 0 01-9.033-45.436 41.683 41.683 0 0115.348-18.71 41.645 41.645 0 0123.15-7.024 41.47 41.47 0 0138.539 25.7 41.508 41.508 0 013.121 15.98z" fill="#FFB0B1"/><path d="M367.385 121.943l-11.362 26.527-10.022 17.607H313.92l-9.357-24.073 3.792-24.964h24.502l15.818-.892 5.344-1.784 3.445 1.955 9.921 5.624z" fill="#575A89"/><path opacity=".1" d="M363.472 86.582s7.086 1.512.74 6.718c-6.345 5.205-28.238 21.759-28.238 21.759s7.69 6.854 6.099 14.881l25.478-14.21 4.533-22.738s.509-6.833-8.612-6.41z" fill="#000"/><path opacity=".1" d="M340.985 115.059l-16.207 2.676s3.344 12.372 1.672 15.884a2.36 2.36 0 00-.125.338l-6.613 17.884 4.956 14.045 17.153-23.408-5.847-8.859s6.179-8.194 9.856-11.036c3.676-2.842-4.845-7.524-4.845-7.524z" fill="#000"/><path d="M340.985 114.369l-16.207 2.671s3.344 12.371 1.672 15.884c-.05.109-.092.222-.125.337l-6.613 17.885 4.956 14.044 17.153-23.422-5.847-8.86s6.179-8.193 9.856-11.036c3.676-2.842-4.845-7.503-4.845-7.503z" fill="#DCE6F2"/><path d="M364.152 85.247s7.086 1.512.735 6.717c-6.351 5.206-28.913 23.095-28.913 23.095s8.355 5.518 6.769 13.541l25.478-14.206 4.533-22.737s.503-6.833-8.602-6.41z" fill="#575A89"/><path opacity=".1" d="M322.759 108.095s1.546 2.893 8.37 8.108c0 0-11.361 6.047-7.015 14.549l-17.38-4.536-2.675-8.36 18.7-9.761z" fill="#000"/><path d="M322.089 107.43s1.546 2.892 8.37 8.108c0 0-11.362 6.017-7.015 14.543l-17.375-4.535-2.675-8.355 18.695-9.761z" fill="#575A89"/><path opacity=".1" d="M367.385 121.943l-11.362 26.527-10.002 17.607H313.92l-9.357-24.073 3.787-24.964h6.814c-.111 5.825 2.015 12.669 1.879 15.213-.232 4.183 6.235 26.749 6.235 26.749s13.532-21.901 18.875-23.851c3.36-1.225 10.476-11.414 15.306-18.832l9.926 5.624z" fill="#000"/><path d="M412.142 261.536l-1.153 1.451s8.355 41.962 6.044 51.492a27.018 27.018 0 00-.67 5.23v.076c-.408 9.696 2.518 22.279 2.518 22.279s2.337 37.089 1.007 52.343H263.452c-.917-22.556-1.904-51.779-1.007-55.019 1.511-5.347 4.532-24.743 4.532-24.743l.333-9.192s0-8.884.272-18.781c.116-4.45.287-9.121.534-13.263.317-5.211.76-9.6 1.369-11.757.376-1.635.592-3.302.645-4.979 0-.156 0-.317.03-.479 0-.504.051-1.048.071-1.607v-.504c.095-3.245.06-7.095-.046-11.086v-.661a449.082 449.082 0 00-.352-8.949c-.438-9.071-1.007-16.741-1.007-16.741l-19.214-63.696 5.178-12.76 14.368-8.808 26.566-16.05c12.959-10.659 21.49-9.379 24.743-8.209.316.107.626.234.927.378.101.05.181.09.257.136.103.049.203.106.297.171a6.137 6.137 0 00-2.256 1.859 8.226 8.226 0 00-1.395 3.024c-.17.677-.29 1.366-.358 2.061-.065.731-.09 1.487-.09 2.248.035 1.668.178 3.333.428 4.983v.111a78.08 78.08 0 00.574 3.417.253.253 0 000 .055c.231 1.265.463 2.434.619 3.442l.081.504c.111.666.163 1.341.156 2.016.057 1.63.276 3.251.655 4.837.131.666.282 1.376.448 2.117.227 1.008.473 2.106.74 3.225.146.615.302 1.25.464 1.88.06.252.125.504.186.761l.101.398a471.781 471.781 0 002.951 11.086c.423 1.512.69 2.444.69 2.444s7.584-12.27 13.638-19.255c.091-.101.171-.196.257-.287a32.93 32.93 0 011.752-1.875c1.234-1.229 2.342-2.106 3.234-2.429.19-.069.373-.155.549-.257 2.478-1.406 6.476-6.51 10.218-11.857.368-.504.725-1.053 1.088-1.572.831-1.2 1.637-2.404 2.397-3.558.585-.882 1.144-1.739 1.672-2.555a348.292 348.292 0 004.291-6.843l3.495-.156.61-.031h.408l15.869-.735s.685.115 1.813.342c.06 0 .121 0 .186.041 5.631 1.118 21.274 4.661 22.23 9.574 1.169 6.017 26.4 14.045 26.4 14.045.333 4.031 6.512 6.687 6.512 6.687s9.358 24.743 6.855 34.438c-2.473 9.575 6.436 33.259 6.673 33.925l-1.708 2.156-42.239 53.462z" fill="#E8F5FF"/><path opacity=".1" d="M363.467 84.824s15.446-4.384 18.956 4.641c3.511 9.025 11.362 45.474 11.362 45.474s-20.387 3.845-25.73 0a15.387 15.387 0 00-10.863-2.842l-11.528 7.856-3.405-1.007s18.443-27.434 22.452-36.757c4.009-9.322 5.363-13.49-1.244-17.365z" fill="#000"/><path d="M362.797 82.808s15.456-4.384 18.982 4.641c3.525 9.026 11.362 45.475 11.362 45.475s-20.382 3.845-25.731 0a15.374 15.374 0 00-10.858-2.843l-11.538 7.857-3.404-1.008s18.442-27.434 22.451-36.757c4.009-9.322 5.344-13.48-1.264-17.365z" fill="#E8F5FF"/><path opacity=".1" d="M259.116 228.216s11.528 2.842 13.704 9.363c2.175 6.521-8.522 6.687-8.522 6.687s-6.517-11.535-5.182-16.05zm42.939 48.146s-28.233 57.845-21.716 63.363c6.517 5.518 21.716-63.363 21.716-63.363zm38.93-42.628s22.557 56.188 18.045 64.866c-4.513 8.678 9.69 0 9.69 0l-27.735-64.866z" fill="#000"/><path d="M372.396 289.237s-76.188 3.679-53.963 27.419c22.225 23.74 67.833 1.007 67.833 1.007l-13.87-28.426z" fill="#FFB0B1"/><path opacity=".1" d="M361.372 63.543a41.505 41.505 0 01-3.158 15.934c-.7.08-1.4.131-2.075.161-1.007-2.212-.468-4.767-.448-7.2.02-2.435-.876-5.297-3.218-5.952-4.669-1.316-7.892 7.417-12.495 5.84-3.525-1.2-2.604-6.55-4.633-9.64-1.607-2.444-4.825-3.134-7.328-4.666-5.323-3.27-5.162-8.502-7.635-13.45-2.589-5.185-8.058-3.654-12.807-.595-3.606 2.328-6.719 5.448-10.576 7.302-3.339 1.613-7.091 2.197-10.793 2.283a23.707 23.707 0 01-6.769-.716 41.689 41.689 0 0117.066-23.913 41.646 41.646 0 0154.503 7.117 41.707 41.707 0 0110.361 27.495h.005z" fill="#000"/><path d="M307.59 42.64c-3.611 2.328-6.718 5.442-10.576 7.307-3.339 1.607-7.091 2.192-10.793 2.278-4.533.1-9.413-.696-12.51-3.971-2.845-3.024-3.525-7.675-2.322-11.641 1.204-3.966 4.09-7.256 7.479-9.64 3.39-2.384 7.323-4.031 9.569-7.443 1.189-1.804 1.763-3.93 2.75-5.85 3.158-6.144 10.259-9.47 17.123-9.883 6.864-.413 13.668 1.633 20.206 3.85 6.537 2.218 13.124 4.657 20.024 5.115 3.072.192 6.265 0 9.115 1.164 3.833 1.557 6.346 5.281 8.058 9.07 1.919 4.274 3.113 8.94 2.911 13.607-.423 9.963-7 19.739-4.109 29.283.765 2.545 2.201 5.155 1.435 7.7-1.118 3.714-5.908 4.56-9.78 4.737-1.008-2.212-.469-4.772-.449-7.201.021-2.429-.876-5.296-3.213-5.951-4.673-1.306-7.897 7.412-12.49 5.84-3.5-1.204-2.593-6.55-4.628-9.64-1.607-2.45-4.83-3.134-7.328-4.666-5.323-3.27-5.162-8.502-7.635-13.45-2.608-5.21-8.083-3.679-12.837-.615z" fill="#575A89"/><path d="M233.713 234.399l-3.843 1.341s1.511 22.737-3.525 29.258c-5.036 6.521 16.539 22.732 16.539 22.732s29.573-.166 30.409-2.52c.836-2.353-1.511-42.128-1.511-42.128s-15.874-6.188-14.54-16.05c0 0-4.845 23.236-12.026 22.233-7.182-1.002-15.336-7.004-11.503-14.866z" fill="#E8F5FF"/><path opacity=".1" d="M246.53 256.3c5.599 0 10.138-4.153 10.138-9.277s-4.539-9.277-10.138-9.277-10.138 4.153-10.138 9.277 4.539 9.277 10.138 9.277z" fill="#000"/><path d="M257.615 235.07s-2.014-61.52-19.551-47.813c-17.536 13.707-17.707 30.1-14.368 34.942 3.339 4.843 14.046 29.087 14.046 29.087a12.245 12.245 0 0011.121.596 12.261 12.261 0 007.01-8.659l1.742-8.153z" fill="#FFB0B1"/><path opacity=".1" d="M367.007 79.24a1.477 1.477 0 00-.453-.695c-.866-.791-2.73-1.069-5.54-.827l.116 1.33c3.747-.322 4.487.424 4.583.55v.126l.116.166a5.62 5.62 0 011.007 4.435c-.821 4.107-5.862 7.377-5.912 7.413l-.121.07-.076.116c-2.176 3.23-14.479 12.346-17.697 14.705l-.282-.323c-1.441 1.25-14.102 12.341-14.787 16.589-.443 2.666-3.444 3.699-4.532 3.987-1.149-.872-4.875-3.84-6.814-7.166-1.818-3.13 5.499-9.237 6.144-11.621l-1.007-1.033c-.106.383-9.504 9.172-6.89 13.662 2.095 3.603 5.923 6.687 7.262 7.705-.428 3.89-3.092 26.733-7.186 32.145-5.087 6.728-9.363 40.632-8.889 52.469.418 10.517-2.327 30.382-11.493 38.913a14.685 14.685 0 01-12.122 4.032h-.222c-.131 0-13.427 1.36-24.597-8.063-9.141-7.695-14.318-20.253-15.396-37.336h-.221l-.091-4.974a9.696 9.696 0 008.133-10.721 9.702 9.702 0 00-3.482-6.365 9.69 9.69 0 00-13.408 1.075 9.7 9.7 0 00.572 13.447 9.69 9.69 0 006.739 2.68h.111l.091 4.944-.443.03c1.108 17.637 6.547 30.684 16.116 38.742a37.256 37.256 0 0025.992 8.511c.669.073 1.341.11 2.014.111a16.516 16.516 0 0011.584-4.661c9.654-8.995 12.59-29.591 12.132-40.466-.504-12.543 3.984-45.227 8.486-51.179 4.412-5.84 7.086-28.598 7.554-33.007 1.597-.448 5.208-1.864 5.822-5.543.444-2.661 8.899-10.86 14.102-15.4l-.156-.182c2.8-2.045 11.508-8.496 15.824-12.638 1.339-1.285 2.669-2.57 4.059-3.795 1.672-1.481 3.797-3.834 4.356-6.616a6.872 6.872 0 00-1.098-5.342z" fill="#000"/><path d="M321.953 128.111c-.211-.146-5.227-3.739-7.74-8.063-2.609-4.49 6.788-13.273 6.889-13.656l1.007 1.033c-.639 2.378-7.957 8.491-6.139 11.615 2.292 3.946 7.116 7.398 7.167 7.433l-1.184 1.638z" fill="#353146"/><path d="M342.375 107.606l-.785-1.083c.161-.116 15.98-11.565 18.473-15.27l.08-.11.116-.076c.05-.035 5.092-3.3 5.913-7.412a5.59 5.59 0 00-1.008-4.43l-.116-.171v-.121c-.1-.131-.841-.872-4.588-.55l-.115-1.335c2.815-.242 4.673.035 5.539.827.216.185.375.428.459.7a6.899 6.899 0 011.138 5.347c-.559 2.787-2.679 5.14-4.356 6.616-1.385 1.225-2.72 2.52-4.055 3.795-5.061 4.853-16.141 12.875-16.695 13.273zm-101.118 96.255l-1.334.024.148 8.117 1.335-.024-.149-8.117z" fill="#E8F5FF"/><path d="M239.812 205.091c5.382 0 9.745-4.366 9.745-9.751s-4.363-9.751-9.745-9.751c-5.382 0-9.745 4.366-9.745 9.751s4.363 9.751 9.745 9.751z" fill="#587EEC"/><path d="M239.812 203.438a8.095 8.095 0 008.093-8.098c0-4.472-3.623-8.098-8.093-8.098s-8.093 3.626-8.093 8.098a8.095 8.095 0 008.093 8.098z" fill="#E8F5FF"/><path d="M283.708 257.419a18.577 18.577 0 01-2.015-.106 37.31 37.31 0 01-25.992-8.511c-9.569-8.063-14.998-21.095-16.116-38.747l2.015-.126c1.077 17.083 6.255 29.646 15.401 37.336 11.17 9.398 24.461 8.063 24.592 8.063h.221a14.716 14.716 0 0012.127-4.032c9.161-8.531 11.906-28.396 11.488-38.913-.503-11.847 3.772-45.752 8.864-52.474 4.457-5.891 7.222-32.443 7.252-32.71l.076-.756.745-.131c.045 0 4.397-.826 4.941-4.082.705-4.243 13.346-15.334 14.781-16.589l1.314 1.512c-5.222 4.535-13.678 12.739-14.101 15.405-.614 3.689-4.225 5.1-5.817 5.543-.504 4.414-3.158 27.167-7.554 33.007-4.503 5.952-8.99 38.636-8.486 51.179.433 10.875-2.473 31.475-12.128 40.465a16.516 16.516 0 01-11.608 4.667z" fill="#353146"/><path opacity=".1" d="M365.663 51.63c.826-3.054 1.823-6.128 2.518-9.222-.831 3.11-1.833 6.168-2.518 9.222zm-8.426 23.997c-1.007-2.212-.468-4.772-.448-7.201.02-2.429-.876-5.271-3.213-5.952-4.674-1.305-7.897 7.418-12.49 5.841-3.525-1.204-2.594-6.551-4.628-9.64-1.607-2.45-4.825-3.134-7.323-4.666-5.329-3.27-5.167-8.502-7.635-13.45-2.594-5.19-8.058-3.659-12.812-.595-3.611 2.328-6.719 5.447-10.576 7.307-3.34 1.608-7.092 2.192-10.793 2.278-4.508.106-9.413-.696-12.51-3.971-2.387-2.52-3.249-6.214-2.755-9.676-.086.237-.161.474-.237.711-1.208 3.966-.503 8.627 2.322 11.64 3.097 3.276 8.003 4.072 12.51 3.972 3.707-.086 7.454-.67 10.798-2.278 3.868-1.865 6.975-4.979 10.576-7.307 4.754-3.064 10.223-4.596 12.812.595 2.468 4.948 2.312 10.179 7.635 13.45 2.518 1.511 5.716 2.217 7.328 4.666 2.014 3.099 1.123 8.436 4.628 9.64 4.588 1.572 7.811-7.146 12.485-5.84 2.337.654 3.238 3.527 3.213 5.95-.025 2.425-.549 4.99.448 7.202 3.873-.177 8.663-1.008 9.786-4.737a5.432 5.432 0 00.211-1.648c-1.636 2.827-5.847 3.553-9.332 3.709zm91.02 124.168l5.848 6.188s4.678 34.101 7.015 37.291c2.337 3.19 7.857 15.878 2.674 25.408 0 0-1.672 5.185-.67 7.357 1.003 2.172-7.514 13.042-7.514 13.042s-11.195 10.028-13.537 11.535c-2.342 1.506-14.701 13.54-18.876 13.706-4.175.167-5.54 5.352-5.54 5.352l-23.559.837s-13.014-.681-15.844 1.159c0 0 1.51-19.895-13.029-32.937l18.543-6.687s7.021-3.024 9.191-6.183a11.354 11.354 0 015.54-4.178s5.178-3.679 5.344-5.684c.166-2.006 6.33-4.465 6.33-4.465l-3.49-29.807 1.838-49.486s5.848-41.463 18.212-39.12c12.364 2.343 21.524 56.672 21.524 56.672z" fill="#000"/><path d="M450.272 199.795l5.847 6.188s4.679 34.101 7.015 37.291c2.337 3.19 7.857 15.878 2.675 25.408 0 0-1.667 5.185-.665 7.357 1.002 2.172-7.519 13.042-7.519 13.042s-11.196 10.028-13.538 11.535c-2.342 1.506-14.701 13.54-18.876 13.706-4.175.167-5.539 5.352-5.539 5.352l-23.56.837s-13.024-.681-15.844 1.159c0 0 1.511-19.895-13.029-32.937l18.544-6.687s7.02-3.024 9.191-6.183a11.345 11.345 0 015.54-4.178s5.177-3.679 5.343-5.684c.166-2.006 6.331-4.465 6.331-4.465l-3.49-29.807 1.838-49.486s5.847-41.463 18.211-39.12c12.364 2.343 21.525 56.672 21.525 56.672z" fill="#E8F5FF"/><path opacity=".1" d="M428.535 249.784s17.209-4.535 21.722 1.008c4.512 5.544-21.722-1.008-21.722-1.008zm-4.008 7.605c5.847 4.097 23.892 4.263 23.892 4.263l-23.892-4.263zm8.853 20.479c.504.167 12.405 12.876 17.401 9.031 4.995-3.845-17.401-9.031-17.401-9.031zM273.107 171.207s3.495 24.078 1.772 33.884c-1.722 9.807 4.563 21.956 4.563 21.956l-6.335-55.84z" fill="#000"/><path d="M195.73 180.998c-4.029 3.16-6.971 10.638-9.101 18.857-3.717 14.337-4.93 30.962-4.93 30.962s-32.081-7.358-29.745-10.699c1.471-2.101-.503-17.935-2.15-29.414-.982-6.783-1.858-12.049-1.858-12.049s58.813-6.354 47.784 2.343z" fill="#FFB0B1"/><path opacity=".1" d="M195.73 180.328c-4.029 3.165-6.971 10.638-9.101 18.857a36.999 36.999 0 01-36.825-9.146c-.982-6.788-1.858-12.054-1.858-12.054s58.813-6.35 47.784 2.343z" fill="#000"/><path d="M212.974 162.318a37.145 37.145 0 01-8.74 23.949 37.088 37.088 0 01-47.178 8.07 37.124 37.124 0 01-16.194-19.684 37.149 37.149 0 01.311-25.494 37.123 37.123 0 0116.669-19.282 37.088 37.088 0 0146.968 9.22 37.126 37.126 0 018.164 23.221z" fill="#FFB0B1"/><path opacity=".1" d="M242.224 394.407h-10.576l-.891-18.691-.932-19.346s2.402-.358 6.23-.892l1.546-.207h.126a827.955 827.955 0 012.457 11.984 123.162 123.162 0 012.06 21.669v1.481c.03 1.346 0 2.691-.02 4.002z" fill="#000"/><path d="M240.195 394.407H107.56a69.39 69.39 0 01.957-2.097s10.611-46.452 16.005-66.105a.209.209 0 000-.05 78.628 78.628 0 012.437-7.887c.062-.176.141-.344.237-.504 2.669-4.344 6.013-9.025 1.335-15.712-4.679-6.687-3.022-36.112-3.022-36.112s5.681-25.08 11.694-38.454a17.995 17.995 0 013.818-5.544 15.628 15.628 0 011.672-1.421c.448-.337.916-.648 1.4-.932l.095-.06a20.2 20.2 0 018.225-2.555 23.43 23.43 0 016.169.171c9.75 1.431 17.556 3.825 23.761 6.551 16.816 7.393 21.908 17.3 22.009 17.507l.04.085c.675 1.577 10.546 24.637 14.101 35.396.922 2.802 1.426 4.772 1.224 5.311-1.007 2.671 7.685 36.107 7.685 36.107s4.029 16.126 8.058 35.028c.177.786.343 1.572.504 2.368.72 3.432 1.435 6.929 2.125 10.422a122.485 122.485 0 012.06 21.82c.074 2.281.089 4.503.046 6.667z" fill="#EB5569"/><path opacity=".1" d="M151.622 205.474s-9.151-3.527-9.04 1.824c.111 5.352 2.231 7.912 1.561 8.693-.67.781.333 5.463.333 5.463s12.364 0 18.044 2.56c5.681 2.56 26.622 7.689 29.296 9.252 2.675 1.562 12.591 8.566 12.591 8.566l.891-13.263s-10.248-8.471-27.064-12.815c-16.816-4.344-26.612-10.28-26.612-10.28z" fill="#000"/><path d="M151.622 204.804s-9.151-3.528-9.04 1.824c.111 5.352 2.231 7.912 1.561 8.693-.67.781.333 5.462.333 5.462s12.364 0 18.044 2.565c5.681 2.565 26.622 7.69 29.296 9.247 2.675 1.558 12.591 8.567 12.591 8.567l.901-13.223s-10.248-8.471-27.064-12.815c-16.816-4.344-26.622-10.32-26.622-10.32z" fill="#EB5569"/><path opacity=".1" d="M179.246 236.723s17.486 18.942 16.594 24.188c-.891 5.246-16.594-24.188-16.594-24.188zm-28.405 68.428s-12.817 11.817-16.594 12.487c-3.777.671 2.896 2.898 7.237 1.119 4.341-1.779 13.598-6.46 13.598-6.46l-4.241-7.146z" fill="#000"/><path d="M245.402 394.407h-29.89c-4.18-3.629-8.134-6.99-10.652-9.011-4.029-3.235-6.935-7.997-8.788-11.827a49.352 49.352 0 01-1.088-2.429 40.466 40.466 0 01-1.45-3.905l22.134-13.153a34.604 34.604 0 013.44 3.367l.267.307c1.228 1.451 2.311 3.099 2.407 4.45.111 1.572 4.482 7.654 8.949 13.495 4.533 5.941 9.176 11.62 9.484 12.003 0 0 .765 1.044 2.014 2.646.881 1.159 1.969 2.55 3.173 4.057z" fill="#FFB0B1"/><path opacity=".1" d="M204.81 139.097c-1.063 2.398-2.015 4.888-2.156 7.559-.397 7.71.247 24.949-8.284 28.819-4.226 1.905-8.748-2.277-13.382-2.378-3.334-.071-6.391 2.046-8.425 4.691-2.035 2.646-3.299 5.785-4.775 8.779a59.934 59.934 0 01-4.628 7.811 19.57 19.57 0 01-1.712 2.161 37.125 37.125 0 01-21.99-41.298A37.127 37.127 0 01159.1 129.23a37.069 37.069 0 0132.578-.47 37.103 37.103 0 0113.132 10.357v-.02z" fill="#000"/><path d="M201.985 145.295c-.403 7.71.246 24.949-8.29 28.815-4.226 1.904-8.748-2.273-13.381-2.374-3.334-.076-6.386 2.046-8.426 4.687-2.04 2.64-3.294 5.785-4.774 8.783a60.053 60.053 0 01-4.629 7.811c-1.037 1.471-2.186 2.948-3.782 3.774-2.78 1.452-6.149.635-9.131-.297a149.958 149.958 0 01-11.432-4.122c.086-.567.13-1.14.131-1.713-.111.211-.232.408-.353.619l-.236.414a45.329 45.329 0 00-1.229 2.287c-.146.298-.287.605-.413.913a11.566 11.566 0 00-.942 3.608c-.257 3.361 1.4 6.551 2.871 9.574 5.655 11.696 9.151 25.373 4.895 37.644-1.843 5.336-5.036 10.078-7.368 15.233a49.25 49.25 0 00-3.44 29.117c1.164 6.108 3.495 12.155 2.921 18.348-1.007 10.658-10.193 18.59-19.394 24.043-4.971 2.933-11.055 5.543-16.333 3.225 3.364-3.931 4.23-9.368 4.956-14.498a66192.907 66192.907 0 018.35-58.718c1.48-10.471 2.981-21.059 2.055-31.596-.675-7.766-2.579-16.01.785-23.04 1.778-3.724 4.946-6.808 5.933-10.819.811-3.26.055-6.727.589-10.048a17.086 17.086 0 011.471-4.354 21.37 21.37 0 013.374-5.15c-1.35-.393-2.609-.933-3.374-2.061 2.165-1.411 2.493-4.591 1.511-6.98-.982-2.388-2.947-4.208-4.714-6.092-1.768-1.885-3.47-4.082-3.692-6.652-.428-4.893 4.457-8.683 5.318-13.51.872-4.914-2.573-9.691-2.296-14.665.322-6.012 5.842-10.381 11.291-12.915a51.346 51.346 0 0126.33-4.536c7.343.696 14.449 2.968 21.771 3.85 4.417.504 8.894.555 13.281 1.331 4.387.776 8.783 2.413 11.87 5.634 8.139 8.491-1.611 15.48-2.074 24.43z" fill="#575A89"/><path opacity=".1" d="M195.175 373.574c-2.568-1.114-7.242-.448-15.265-2.892-8.022-2.444-9.568-13.491-9.568-13.491v-.035c-.096-.252-.841-1.895-5.888-7.649-5.575-6.355-17.627-38.45-17.627-38.45s-10.687-11.485-10.349-15.718c.337-4.233-1.899-15.495-1.677-28.094.221-12.598 24.058-20.953 24.058-20.953 45.895-8.138 35.088 44.804 33.864 48.816-1.224 4.011 5.127 14.845 5.127 14.845-.897 4.717 3.676 12.019 3.676 12.019s1.108 6.46 1.335 8.914c.012.114.038.225.075.333.736 2.313 6.729 4.409 9.166 5.684 2.564 1.341 10.808 13.042 10.808 13.042 1.778 8.592-25.176 24.758-27.735 23.629z" fill="#000"/><path d="M196.51 371.558c-2.563-1.118-7.242-.448-15.26-2.897-8.017-2.449-9.569-13.485-9.569-13.485v-.036c-.09-.257-.841-1.894-5.887-7.649-5.575-6.355-17.627-38.455-17.627-38.455s-10.687-11.479-10.354-15.712c.332-4.233-1.894-15.496-1.672-28.084.221-12.588 24.043-20.938 24.043-20.938 45.895-8.139 35.087 44.804 33.863 48.815-1.223 4.011 5.127 14.846 5.127 14.846-.896 4.716 3.677 12.018 3.677 12.018s1.108 6.461 1.339 8.915c.009.113.033.225.071.332.735 2.314 6.728 4.41 9.171 5.685 2.558 1.335 10.808 13.041 10.808 13.041 1.788 8.577-25.166 24.743-27.73 23.604z" fill="#EB5569"/><path opacity=".1" d="M161.09 271.942s20.049 21.165 25.282 21.165c5.233 0-25.282-21.165-25.282-21.165z" fill="#000"/><path d="M196.51 371.558c-2.563-1.118-7.242-.448-15.26-2.897s-9.569-13.485-9.569-13.485v-.035c5.314-3.528 18.77-13.491 24.074-17.134 3.731-2.555 6.778-6.309 8.561-8.799.736 2.313 6.729 4.41 9.171 5.685 2.559 1.335 10.808 13.041 10.808 13.041 1.732 8.597-25.222 24.763-27.785 23.624z" fill="#FF748E"/><g opacity=".1" fill="#000"><path opacity=".1" d="M123.419 175.455c.025.04.06.076.091.116.151-.192.307-.383.468-.564a3.76 3.76 0 01-.559.448zm11.684 23.1c.212-2.797 1.707-5.261 3.107-7.72a135.47 135.47 0 01-2.739-1.083c.086-.566.13-1.137.131-1.709-1.416 2.52-2.957 4.999-3.173 7.836-.257 3.367 1.4 6.551 2.87 9.575 5.661 11.691 9.151 25.368 4.896 37.643-1.849 5.332-5.037 10.079-7.368 15.234a49.223 49.223 0 00-3.435 29.112c1.153 6.113 3.49 12.155 2.916 18.348-1.007 10.658-10.188 18.59-19.395 24.037-3.762 2.228-8.158 4.269-12.364 4.122a15.211 15.211 0 01-1.299 1.789c5.283 2.334 11.362-.292 16.333-3.235 9.211-5.442 18.412-13.354 19.419-24.032.574-6.193-1.762-12.236-2.921-18.348a49.27 49.27 0 013.425-29.112c2.317-5.15 5.54-9.902 7.368-15.234 4.256-12.275.76-25.952-4.895-37.643-1.466-3.044-3.133-6.214-2.876-9.58z"/><path opacity=".1" d="M204.049 120.925a14.599 14.599 0 00-1.591-1.411c6.104 7.922-2.71 14.654-3.148 23.181-.393 7.71.252 24.954-8.284 28.814-4.221 1.91-8.748-2.272-13.377-2.373-3.339-.071-6.391 2.051-8.43 4.691-2.04 2.641-3.294 5.785-4.77 8.779a60.44 60.44 0 01-4.633 7.811c-1.007 1.476-2.186 2.948-3.787 3.779-2.77 1.446-6.14.635-9.126-.302a142.832 142.832 0 01-8.632-3.024c-.006.525-.05 1.049-.131 1.567a147.16 147.16 0 0011.437 4.122c2.982.938 6.351 1.749 9.126.303 1.596-.832 2.755-2.308 3.787-3.785a59.292 59.292 0 004.628-7.805c1.481-2.994 2.73-6.143 4.775-8.784 2.045-2.641 5.092-4.757 8.426-4.686 4.633.1 9.16 4.283 13.381 2.373 8.536-3.86 7.887-21.104 8.284-28.815.464-8.964 10.214-15.949 2.065-24.435z"/></g><path opacity=".1" d="M137.687 191.697a45.766 45.766 0 00-1.229 2.287c-.146.298-.287.605-.413.913-2.639-2.661-9.065-8.985-12.651-10.946a21.499 21.499 0 013.374-5.15s8.547 4.52 10.919 12.896z" fill="#000"/><path d="M137.923 191.284c-1.979-8.965-11.155-13.818-11.155-13.818a21.37 21.37 0 00-3.374 5.15c3.782 2.071 10.752 9.015 13.064 11.369l1.465-2.701z" fill="#EB5569"/><defs><linearGradient id="paint0_linear_4_6" x1="367.662" y1="48.072" x2="367.662" y2="38.81" gradientUnits="userSpaceOnUse"><stop stop-color="gray" stop-opacity=".25"/><stop offset=".54" stop-color="gray" stop-opacity=".12"/><stop offset="1" stop-color="gray" stop-opacity=".1"/></linearGradient><linearGradient id="paint1_linear_4_6" x1="231049" y1="331838" x2="231049" y2="23136.5" gradientUnits="userSpaceOnUse"><stop stop-color="gray" stop-opacity=".25"/><stop offset=".54" stop-color="gray" stop-opacity=".12"/><stop offset="1" stop-color="gray" stop-opacity=".1"/></linearGradient></defs></svg>